<svg width="602" height="563" viewBox="0 0 602 563" fill="none" xmlns="http://www.w3.org/2000/svg">
<path d="M300.965 562.808C467.184 562.808 601.93 485.01 601.93 389.043C601.93 293.075 467.184 215.278 300.965 215.278C134.747 215.278 0 293.075 0 389.043C0 485.01 134.747 562.808 300.965 562.808Z" fill="#F0F0F0"/>
<path d="M238.687 520.714C296.005 520.714 342.471 493.89 342.471 460.8C342.471 427.71 296.005 400.885 238.687 400.885C181.369 400.885 134.903 427.71 134.903 460.8C134.903 493.89 181.369 520.714 238.687 520.714Z" fill="#E0E0E0"/>
<path d="M533.827 385.836L521.652 378.81C521.652 378.81 518.676 352.749 520.656 332.564C523.441 304.204 541.76 270.069 563.605 278.092C585.451 286.115 553.59 314.986 546.5 339.041C539.41 363.097 533.827 385.836 533.827 385.836Z" fill="#21A636"/>
<path opacity="0.15" d="M533.827 385.836L521.652 378.81C521.652 378.81 518.676 352.749 520.656 332.564C523.441 304.204 541.76 270.069 563.605 278.092C585.451 286.115 553.59 314.986 546.5 339.041C539.41 363.097 533.827 385.836 533.827 385.836Z" fill="black"/>
<path d="M527.427 382.885C527.621 382.875 527.804 382.789 527.935 382.646C528.067 382.502 528.136 382.313 528.129 382.118C525.996 319.1 557.371 287.392 557.678 287.086C557.817 286.947 557.895 286.758 557.895 286.562C557.895 286.365 557.817 286.177 557.678 286.038C557.61 285.97 557.53 285.915 557.441 285.878C557.352 285.841 557.257 285.822 557.161 285.822C557.064 285.822 556.969 285.841 556.88 285.878C556.791 285.915 556.711 285.97 556.643 286.038C556.311 286.345 524.489 318.512 526.648 382.17C526.651 382.268 526.674 382.365 526.715 382.454C526.756 382.544 526.814 382.624 526.887 382.691C526.96 382.757 527.045 382.809 527.137 382.842C527.23 382.876 527.328 382.89 527.427 382.885Z" fill="white"/>
<path d="M541.479 390.218L532.818 385.223C532.818 385.223 531.336 367.338 540.112 345.62C547.777 326.713 566.684 311.013 576.214 314.309C585.744 317.605 585.501 324.363 580.851 331.453C576.201 338.543 547.956 355.419 541.479 390.218Z" fill="#21A636"/>
<path d="M536.906 388.327C537.101 388.324 537.288 388.245 537.426 388.106C537.564 387.968 537.643 387.782 537.647 387.586C537.468 347.728 574.886 320.799 575.269 320.53C575.349 320.476 575.417 320.405 575.468 320.324C575.52 320.242 575.555 320.151 575.571 320.055C575.586 319.959 575.582 319.862 575.559 319.768C575.535 319.674 575.493 319.586 575.435 319.508C575.322 319.351 575.151 319.244 574.96 319.21C574.769 319.177 574.573 319.22 574.413 319.33C574.03 319.598 535.999 346.987 536.165 387.586C536.165 387.783 536.243 387.971 536.382 388.11C536.521 388.249 536.709 388.327 536.906 388.327Z" fill="white"/>
<path d="M83.3566 370.187L94.5986 362.598C94.5986 362.598 99.5425 333.216 94.9435 307.296C88.4794 270.938 63.3511 258.853 54.4086 262.685C45.4661 266.518 43.5499 277.338 60.2467 298.085C70.1473 310.285 83.0117 336.333 83.3566 370.187Z" fill="#21A636"/>
<g opacity="0.15">
<path d="M83.3566 370.187L94.5986 362.598C94.5986 362.598 99.5425 333.216 94.9435 307.296C88.4794 270.938 63.3511 258.853 54.4086 262.685C45.4661 266.518 43.5499 277.338 60.2467 298.085C70.1473 310.285 83.0117 336.333 83.3566 370.187Z" fill="black"/>
</g>
<path d="M87.2147 355.623H87.0998C86.9849 355.616 86.8729 355.585 86.771 355.531C86.6692 355.478 86.5797 355.403 86.5086 355.313C86.4375 355.222 86.3862 355.118 86.3582 355.006C86.3302 354.895 86.326 354.779 86.346 354.665C90.4085 320.441 75.96 283.292 60.234 268.511C60.0827 268.358 59.9978 268.151 59.9978 267.936C59.9978 267.721 60.0827 267.514 60.234 267.361C60.309 267.285 60.3984 267.224 60.4971 267.182C60.5958 267.141 60.7018 267.12 60.8089 267.12C60.916 267.12 61.022 267.141 61.1207 267.182C61.2194 267.224 61.3088 267.285 61.3838 267.361C77.4036 282.41 92.1203 320.173 88.0068 354.895C87.9827 355.091 87.8898 355.271 87.7446 355.405C87.5995 355.538 87.4117 355.616 87.2147 355.623Z" fill="white"/>
<path d="M53.923 390.039C52.1345 391.112 46.9223 387.241 45.4788 386.309C43.0048 384.693 40.9895 382.467 39.6279 379.845C38.1003 376.871 37.5334 373.496 38.0054 370.187C38.2671 368.459 38.647 366.752 39.1424 365.077C39.5895 363.403 40.0366 361.73 40.4199 360.043C40.9865 358.403 41.204 356.663 41.0586 354.933C40.5604 351.523 37.4817 349.185 34.6712 347.179C31.5796 344.943 28.2837 341.992 28.2837 337.879C28.4413 334.647 29.6783 331.561 31.7968 329.115C33.713 326.56 36.0125 324.337 37.7372 321.668C39.0857 319.817 39.7741 317.568 39.6917 315.28C39.4696 313.87 38.9656 312.518 38.2098 311.307C36.7024 308.65 34.7478 306.197 33.6875 303.374C32.6272 300.551 32.7038 296.922 34.965 294.815C36.7663 293.09 39.5129 292.809 42.004 292.924C44.3514 293.158 46.619 293.903 48.647 295.108C55.2516 298.621 59.1352 306.286 66.1231 308.956C68.8186 309.978 71.7569 310.157 74.5546 310.847C77.3523 311.537 80.2394 312.904 81.5808 315.446C84.2252 320.492 79.6135 326.854 81.5042 332.207C83.1904 336.959 87.8916 338.697 90.5488 342.951C91.6273 344.84 92.0748 347.024 91.8263 349.185C91.6764 352.833 90.858 356.423 89.4118 359.775C87.7485 363.252 85.8713 366.623 83.7909 369.867C83.7909 369.867 54.1913 389.873 53.923 390.039Z" fill="#21A636"/>
<path d="M71.1946 379.449C71.0872 379.447 70.9812 379.424 70.8827 379.382C70.7841 379.339 70.6949 379.277 70.6202 379.2C70.5455 379.123 70.4867 379.032 70.4471 378.932C70.4076 378.832 70.3881 378.726 70.3898 378.618C71.1052 346.272 55.1876 310.911 43.9201 300.691C43.7599 300.547 43.6634 300.345 43.6514 300.129C43.6394 299.914 43.7131 299.703 43.8562 299.541C43.9312 299.465 44.0206 299.404 44.1193 299.363C44.218 299.321 44.324 299.3 44.4311 299.3C44.5382 299.3 44.6442 299.321 44.7429 299.363C44.8416 299.404 44.931 299.465 45.006 299.541C56.5034 309.889 72.7404 345.863 72.0122 378.657C72.0105 378.762 71.9881 378.867 71.9461 378.964C71.9041 379.061 71.8434 379.148 71.7675 379.222C71.6916 379.296 71.6019 379.353 71.5036 379.392C71.4053 379.431 71.3003 379.45 71.1946 379.449Z" fill="white"/>
<path d="M65.2289 340.038C65.1534 340.057 65.0745 340.057 64.999 340.038C54.5491 337.023 41.5953 336.716 41.4675 336.704C41.3607 336.702 41.2553 336.679 41.1574 336.636C41.0596 336.594 40.9712 336.532 40.8975 336.454C40.8238 336.377 40.7662 336.286 40.7281 336.186C40.6899 336.086 40.6721 335.98 40.6755 335.873C40.6735 335.765 40.6939 335.658 40.7354 335.559C40.7769 335.459 40.8387 335.369 40.9167 335.295C40.9948 335.221 41.0875 335.163 41.1889 335.126C41.2903 335.089 41.3982 335.074 41.5058 335.081C41.6336 335.081 54.7918 335.401 65.4461 338.467C65.652 338.529 65.8251 338.67 65.9279 338.858C66.0308 339.047 66.055 339.269 65.9954 339.476C65.9457 339.64 65.8441 339.783 65.7059 339.885C65.5676 339.986 65.4003 340.04 65.2289 340.038Z" fill="white"/>
<path d="M366.322 347.946L361.48 345.148C360.673 344.624 360.002 343.917 359.52 343.085C359.038 342.252 358.76 341.318 358.708 340.357V139.126C358.76 138.167 359.038 137.234 359.517 136.402C359.996 135.57 360.664 134.862 361.467 134.336L496.051 56.6382C496.909 56.2039 497.856 55.9775 498.817 55.9775C499.778 55.9775 500.726 56.2039 501.583 56.6382L506.425 59.436C507.231 59.9597 507.903 60.6667 508.385 61.4991C508.866 62.3316 509.145 63.2662 509.197 64.2266V265.458C509.144 266.416 508.867 267.349 508.388 268.182C507.908 269.014 507.24 269.722 506.437 270.248L371.853 347.958C370.996 348.394 370.047 348.62 369.086 348.617C368.124 348.615 367.177 348.385 366.322 347.946Z" fill="#455A64"/>
<path d="M509.197 63.7794C509.005 62.3487 507.843 61.8249 506.45 62.6297L371.853 140.34C371.039 140.85 370.367 141.558 369.899 142.397L359.513 136.405C359.977 135.56 360.65 134.848 361.467 134.336L496.051 56.6382C496.909 56.2039 497.856 55.9775 498.817 55.9775C499.778 55.9775 500.726 56.2039 501.583 56.6382L506.425 59.436C507.172 59.9174 507.807 60.5548 508.286 61.3045C508.764 62.0542 509.075 62.8984 509.197 63.7794Z" fill="#455A64"/>
<path d="M371.381 348.176C370.563 348.507 369.684 348.659 368.802 348.621C367.921 348.584 367.057 348.358 366.271 347.959L361.416 345.148C360.613 344.621 359.945 343.913 359.466 343.081C358.987 342.249 358.709 341.316 358.657 340.357V139.126C358.69 138.166 358.967 137.229 359.462 136.405L369.848 142.397C369.343 143.222 369.061 144.164 369.03 145.131V346.362C369.081 347.946 370.078 348.674 371.381 348.176Z" fill="#263238"/>
<path d="M369.081 145.156V346.362C369.081 348.125 370.359 348.84 371.853 347.958L506.438 270.248C507.241 269.722 507.909 269.014 508.388 268.182C508.867 267.35 509.144 266.417 509.197 265.458V64.2267C509.197 62.4638 507.919 61.7484 506.438 62.6298L371.853 140.34C371.043 140.866 370.37 141.577 369.888 142.414C369.406 143.252 369.129 144.191 369.081 145.156Z" fill="#37474F"/>
<path d="M337.655 221.806C335.917 220.771 327.856 216.185 327.435 215.942C327.106 215.746 326.826 215.479 326.615 215.16C326.403 214.841 326.266 214.479 326.213 214.1C326.161 213.721 326.194 213.335 326.31 212.971C326.426 212.606 326.623 212.273 326.886 211.995L358.708 177.86L369.081 183.813L337.272 217.973C337.022 218.239 336.832 218.556 336.714 218.901C336.597 219.247 336.555 219.613 336.592 219.977C336.628 220.34 336.742 220.691 336.925 221.006C337.108 221.322 337.357 221.594 337.655 221.806Z" fill="#455A64"/>
<path d="M369.081 183.851L337.271 217.973C336.918 218.35 336.687 218.826 336.61 219.337C336.532 219.847 336.612 220.37 336.837 220.835C337.063 221.3 337.424 221.685 337.873 221.941C338.323 222.196 338.839 222.309 339.354 222.265L369.081 219.813V183.851Z" fill="#37474F"/>
<path d="M439.139 122.417C454.827 113.359 467.538 120.705 467.538 138.82C467.538 156.934 454.827 178.946 439.139 188.003C423.451 197.061 410.74 189.715 410.74 171.613C410.74 153.511 423.451 131.474 439.139 122.417Z" fill="#F52525"/>
<path d="M438.934 136.673C444.044 133.735 448.145 136.111 448.145 141.988C447.971 145.182 447.046 148.29 445.446 151.061C443.846 153.831 441.615 156.184 438.934 157.931C433.824 160.869 429.711 158.493 429.711 152.616C429.886 149.421 430.813 146.312 432.416 143.542C434.018 140.771 436.252 138.418 438.934 136.673Z" fill="white"/>
<path d="M457.101 167.998C457.101 158.353 450.317 154.431 441.962 159.26L436.737 162.274C428.383 167.103 421.599 178.882 421.599 188.501V191.146C423.177 191.65 424.823 191.904 426.479 191.9C430.961 191.747 435.325 190.426 439.139 188.067C446.401 183.594 452.545 177.52 457.101 170.31V167.998Z" fill="white"/>
<path d="M421.152 277.67L457.126 256.898C458.659 256.017 459.898 256.732 459.898 258.495V270.082C459.846 271.043 459.568 271.977 459.086 272.81C458.605 273.642 457.933 274.349 457.126 274.873L421.152 295.645C419.619 296.526 418.38 295.811 418.38 294.048V282.461C418.432 281.501 418.71 280.566 419.192 279.734C419.674 278.901 420.345 278.194 421.152 277.67Z" fill="#F52525"/>
<path d="M403.535 251.788L474.705 210.679C476.531 209.618 478.026 210.474 478.026 212.595V216.9C477.964 218.052 477.63 219.173 477.053 220.172C476.476 221.171 475.671 222.019 474.705 222.649L403.497 263.758C401.67 264.819 400.188 263.963 400.188 261.842V257.575C400.247 256.414 400.58 255.284 401.162 254.277C401.745 253.271 402.558 252.418 403.535 251.788Z" fill="#FAFAFA"/>
<path d="M411.865 222.036C412.836 221.474 413.589 221.384 414.126 221.78C414.662 222.176 414.931 223.058 414.931 224.412C414.958 225.648 414.681 226.872 414.126 227.976C413.624 228.974 412.837 229.801 411.865 230.352L409.948 231.464V235.59C409.945 235.732 409.91 235.872 409.846 235.999C409.801 236.114 409.721 236.213 409.616 236.28L408.645 236.842C408.612 236.867 408.572 236.88 408.53 236.88C408.489 236.88 408.449 236.867 408.415 236.842C408.347 236.755 408.314 236.645 408.326 236.535V224.591C408.325 224.45 408.355 224.31 408.415 224.182C408.464 224.068 408.544 223.971 408.645 223.901L411.865 222.036ZM409.948 229.151L411.801 228.078C412.248 227.826 412.626 227.466 412.899 227.031C413.19 226.518 413.332 225.934 413.308 225.345C413.308 224.655 413.168 224.259 412.899 224.144C412.71 224.098 412.512 224.095 412.322 224.138C412.132 224.18 411.953 224.265 411.801 224.386L409.948 225.459V229.151Z" fill="#FAFAFA"/>
<path d="M420.283 217.168C420.411 217.092 420.513 217.092 420.577 217.168C420.659 217.283 420.716 217.414 420.743 217.552L423.694 227.542C423.694 227.542 423.694 227.618 423.694 227.657C423.692 227.799 423.657 227.939 423.592 228.065C423.547 228.181 423.466 228.279 423.362 228.346L422.493 228.845C422.34 228.934 422.225 228.947 422.161 228.845C422.099 228.78 422.055 228.701 422.033 228.615L421.51 226.865L417.677 229.062L417.166 231.412C417.13 231.54 417.083 231.664 417.026 231.783C416.962 231.939 416.844 232.066 416.694 232.141L415.825 232.639C415.793 232.666 415.752 232.681 415.71 232.681C415.668 232.681 415.627 232.666 415.595 232.639C415.528 232.556 415.496 232.451 415.505 232.345C415.498 232.298 415.498 232.251 415.505 232.204L418.444 218.816C418.479 218.619 418.535 218.427 418.61 218.241C418.672 218.107 418.775 217.996 418.904 217.922L420.283 217.168ZM420.948 224.91L419.67 220.4L418.393 226.43L420.948 224.91Z" fill="#FAFAFA"/>
<path d="M428.165 212.429C428.593 212.159 429.079 211.997 429.583 211.956C429.94 211.924 430.297 212.004 430.605 212.186C430.886 212.368 431.104 212.631 431.231 212.94C431.371 213.254 431.449 213.592 431.461 213.936C431.47 214.078 431.439 214.22 431.372 214.345C431.327 214.461 431.246 214.559 431.142 214.626L430.299 215.112C430.158 215.188 430.056 215.201 429.992 215.112C429.913 215.059 429.847 214.989 429.8 214.907C429.749 214.792 429.675 214.689 429.583 214.603C429.491 214.518 429.382 214.451 429.264 214.409C428.875 214.353 428.48 214.454 428.165 214.69C427.958 214.824 427.762 214.973 427.578 215.137C427.388 215.312 427.221 215.509 427.079 215.725C426.944 215.933 426.832 216.156 426.747 216.389C426.672 216.611 426.633 216.844 426.632 217.079C426.617 217.294 426.657 217.509 426.747 217.705C426.787 217.773 426.842 217.831 426.909 217.874C426.976 217.916 427.052 217.941 427.131 217.948C427.367 217.989 427.609 217.989 427.846 217.948L428.957 217.705C429.371 217.582 429.803 217.53 430.235 217.552C430.543 217.551 430.843 217.649 431.091 217.833C431.325 218.029 431.494 218.292 431.576 218.586C431.701 219 431.757 219.432 431.742 219.864C431.741 220.435 431.66 221.002 431.5 221.55C431.344 222.113 431.116 222.654 430.822 223.16C430.513 223.678 430.144 224.158 429.724 224.591C429.294 225.036 428.804 225.419 428.267 225.728C427.874 225.967 427.442 226.136 426.99 226.226C426.622 226.296 426.243 226.266 425.891 226.136C425.572 225.988 425.308 225.742 425.138 225.434C424.929 225.04 424.815 224.602 424.805 224.156C424.804 224.011 424.835 223.867 424.895 223.735C424.951 223.626 425.035 223.533 425.138 223.466L425.981 222.981C426.108 222.904 426.211 222.879 426.287 222.917C426.364 222.955 426.415 223.019 426.466 223.134C426.519 223.266 426.588 223.39 426.671 223.505C426.75 223.616 426.861 223.701 426.99 223.747C427.158 223.786 427.333 223.786 427.501 223.747C427.772 223.683 428.031 223.576 428.267 223.428C428.515 223.287 428.75 223.124 428.97 222.943C429.4 222.603 429.741 222.164 429.967 221.665C430.069 221.409 430.121 221.136 430.12 220.86C430.132 220.76 430.123 220.659 430.095 220.562C430.066 220.465 430.018 220.376 429.954 220.298C429.885 220.237 429.803 220.192 429.715 220.166C429.627 220.139 429.534 220.132 429.443 220.145C429.153 220.157 428.865 220.204 428.587 220.285C428.255 220.362 427.871 220.451 427.424 220.528C427.082 220.614 426.728 220.64 426.377 220.605C426.1 220.587 425.839 220.474 425.636 220.285C425.415 220.069 425.26 219.794 425.189 219.493C425.086 219.05 425.039 218.595 425.048 218.139C425.047 217.577 425.129 217.017 425.291 216.478C425.443 215.924 425.667 215.392 425.955 214.894C426.232 214.4 426.566 213.942 426.952 213.527C427.302 213.106 427.711 212.736 428.165 212.429Z" fill="#FAFAFA"/>
<path d="M436.558 207.6C436.983 207.322 437.471 207.155 437.976 207.115C438.333 207.084 438.69 207.165 438.998 207.345C439.271 207.531 439.484 207.793 439.612 208.098C439.751 208.413 439.829 208.751 439.842 209.095C439.857 209.237 439.825 209.38 439.752 209.504C439.707 209.619 439.627 209.718 439.522 209.785L438.679 210.27C438.551 210.347 438.449 210.372 438.373 210.27C438.291 210.219 438.228 210.143 438.194 210.053C438.077 209.829 437.881 209.656 437.644 209.567C437.454 209.539 437.259 209.55 437.073 209.598C436.887 209.646 436.712 209.732 436.558 209.849C436.345 209.979 436.144 210.128 435.958 210.296C435.772 210.47 435.609 210.668 435.473 210.883C435.332 211.088 435.22 211.312 435.14 211.548C435.061 211.769 435.018 212.002 435.013 212.237C434.998 212.452 435.037 212.668 435.128 212.863C435.167 212.932 435.222 212.99 435.289 213.032C435.356 213.075 435.432 213.1 435.511 213.106C435.748 213.147 435.99 213.147 436.226 213.106L437.338 212.863C437.753 212.748 438.184 212.696 438.615 212.71C438.924 212.707 439.224 212.806 439.471 212.991C439.705 213.191 439.877 213.452 439.969 213.745C440.082 214.161 440.134 214.591 440.123 215.022C440.122 215.593 440.04 216.161 439.88 216.709C439.724 217.272 439.496 217.813 439.203 218.318C438.895 218.841 438.526 219.326 438.104 219.762C437.673 220.197 437.188 220.574 436.661 220.886C436.267 221.125 435.835 221.293 435.383 221.384C435.02 221.454 434.644 221.423 434.297 221.295C433.972 221.151 433.702 220.904 433.531 220.592C433.321 220.199 433.211 219.76 433.211 219.315C433.196 219.172 433.228 219.029 433.301 218.906C433.346 218.79 433.426 218.692 433.531 218.625L434.374 218.139C434.502 218.063 434.617 218.037 434.681 218.076C434.725 218.096 434.764 218.126 434.795 218.163C434.826 218.201 434.848 218.245 434.859 218.293C434.917 218.422 434.986 218.546 435.064 218.663C435.148 218.775 435.264 218.86 435.396 218.906C435.564 218.945 435.739 218.945 435.907 218.906C436.178 218.842 436.437 218.734 436.673 218.587C436.915 218.442 437.146 218.28 437.363 218.101C437.588 217.926 437.786 217.719 437.951 217.488C438.116 217.267 438.254 217.027 438.36 216.773C438.462 216.517 438.514 216.243 438.513 215.968C438.525 215.868 438.517 215.766 438.488 215.67C438.459 215.573 438.411 215.483 438.347 215.406C438.278 215.345 438.196 215.3 438.108 215.273C438.02 215.247 437.927 215.24 437.836 215.252C437.551 215.27 437.268 215.317 436.993 215.393C436.661 215.469 436.265 215.559 435.83 215.636C435.484 215.721 435.125 215.747 434.77 215.712C434.493 215.698 434.23 215.584 434.029 215.393C433.812 215.175 433.662 214.901 433.595 214.601C433.481 214.163 433.43 213.712 433.441 213.259C433.446 212.693 433.528 212.13 433.684 211.586C433.842 211.033 434.065 210.502 434.348 210.002C434.625 209.505 434.964 209.045 435.358 208.635C435.702 208.23 436.107 207.88 436.558 207.6Z" fill="#FAFAFA"/>
<path d="M445.871 209.197L444.837 215.316C444.806 215.5 444.754 215.68 444.683 215.853C444.634 215.99 444.539 216.107 444.415 216.185L443.444 216.747C443.316 216.824 443.227 216.824 443.163 216.747C443.077 216.642 443.028 216.512 443.023 216.376L441.49 205.582C441.49 205.582 441.49 205.479 441.49 205.441C441.493 205.299 441.528 205.159 441.592 205.032C441.64 204.919 441.72 204.821 441.822 204.751L442.703 204.24C442.777 204.21 442.859 204.21 442.933 204.24C443.01 204.24 443.061 204.342 443.086 204.547L444.096 211.816L444.977 206.361C445 206.225 445.039 206.092 445.092 205.965C445.143 205.803 445.252 205.667 445.399 205.582L446.382 205.007C446.523 204.93 446.625 204.943 446.689 205.007C446.744 205.088 446.783 205.179 446.804 205.275L447.698 209.708L448.707 201.276C448.719 201.111 448.767 200.949 448.848 200.804C448.908 200.708 448.986 200.626 449.078 200.561L449.959 200.05C449.992 200.025 450.033 200.012 450.074 200.012C450.116 200.012 450.156 200.025 450.189 200.05C450.226 200.092 450.253 200.141 450.271 200.193C450.288 200.246 450.295 200.301 450.291 200.357C450.296 200.408 450.296 200.459 450.291 200.51L448.758 213.068C448.733 213.251 448.686 213.432 448.618 213.604C448.56 213.741 448.462 213.856 448.337 213.936L447.353 214.499C447.238 214.562 447.149 214.562 447.085 214.499C447.02 214.381 446.969 214.257 446.932 214.128L445.871 209.197Z" fill="#FAFAFA"/>
<path d="M451.85 203.78C451.878 203.072 451.964 202.367 452.105 201.672C452.251 200.993 452.474 200.333 452.77 199.705C453.051 199.094 453.412 198.523 453.843 198.006C454.28 197.493 454.803 197.061 455.389 196.728C455.839 196.423 456.365 196.25 456.909 196.23C457.315 196.234 457.703 196.394 457.995 196.677C458.304 197.025 458.527 197.441 458.646 197.891C458.811 198.477 458.901 199.083 458.915 199.692C458.915 199.922 458.915 200.177 458.915 200.458C458.915 200.74 458.915 201.033 458.915 201.34C458.915 201.647 458.915 201.94 458.915 202.221C458.915 202.502 458.915 202.771 458.915 203.013C458.887 203.718 458.801 204.418 458.659 205.109C458.511 205.785 458.293 206.445 458.007 207.076C457.717 207.685 457.352 208.256 456.922 208.775C456.485 209.283 455.967 209.715 455.389 210.052C454.928 210.356 454.394 210.528 453.843 210.551C453.644 210.555 453.446 210.518 453.262 210.444C453.077 210.369 452.91 210.258 452.77 210.116C452.437 209.759 452.207 209.317 452.105 208.839C451.953 208.25 451.868 207.646 451.85 207.038C451.85 206.808 451.85 206.552 451.85 206.271C451.85 205.99 451.85 205.696 451.85 205.39C451.85 205.083 451.85 204.802 451.85 204.508C451.85 204.214 451.837 204.01 451.85 203.78ZM457.292 200.727C457.32 200.414 457.285 200.099 457.189 199.801C457.092 199.502 456.936 199.226 456.73 198.989C456.398 198.696 455.938 198.708 455.389 198.989C454.792 199.34 454.319 199.866 454.034 200.497C453.672 201.242 453.48 202.058 453.472 202.886C453.472 203.358 453.472 203.882 453.472 204.457C453.472 205.032 453.472 205.543 453.472 206.003C453.444 206.315 453.479 206.63 453.576 206.929C453.672 207.228 453.828 207.504 454.034 207.74C454.367 208.021 454.827 207.996 455.389 207.676C455.975 207.323 456.442 206.803 456.73 206.182C457.092 205.442 457.284 204.63 457.292 203.806C457.292 203.32 457.292 202.796 457.292 202.221C457.292 201.647 457.305 201.187 457.292 200.727Z" fill="#FAFAFA"/>
<path d="M464.485 191.631C465.494 191.056 466.247 190.967 466.771 191.389C467.082 191.731 467.312 192.137 467.447 192.579C467.582 193.021 467.617 193.487 467.55 193.944C467.561 194.811 467.427 195.675 467.154 196.499C466.895 197.266 466.492 197.977 465.966 198.594L467.627 202.209C467.633 202.269 467.633 202.328 467.627 202.388C467.628 202.503 467.602 202.617 467.55 202.72C467.515 202.813 467.453 202.893 467.372 202.95L466.35 203.538C466.184 203.627 466.069 203.64 465.992 203.538C465.924 203.471 465.868 203.393 465.826 203.308L464.255 199.897L462.658 200.817V205.134C462.659 205.276 462.628 205.415 462.568 205.543C462.516 205.654 462.437 205.751 462.338 205.824L461.367 206.386C461.335 206.413 461.295 206.428 461.252 206.428C461.21 206.428 461.17 206.413 461.137 206.386C461.101 206.347 461.073 206.301 461.055 206.25C461.038 206.2 461.031 206.146 461.035 206.093V194.148C461.039 194.006 461.074 193.866 461.137 193.739C461.183 193.624 461.263 193.525 461.367 193.458L464.485 191.631ZM462.683 198.504L464.485 197.533C464.925 197.288 465.301 196.942 465.583 196.524C465.879 196.032 466.021 195.463 465.992 194.889C465.992 194.199 465.851 193.816 465.583 193.739C465.194 193.686 464.8 193.787 464.485 194.02L462.747 195.017L462.683 198.504Z" fill="#FAFAFA"/>
<path d="M473.044 186.713C473.507 186.41 474.038 186.226 474.59 186.176C474.989 186.162 475.379 186.304 475.675 186.572C476.014 186.928 476.248 187.37 476.353 187.85C476.524 188.483 476.619 189.135 476.634 189.792C476.634 190.686 476.634 191.606 476.634 192.538C476.607 193.299 476.513 194.056 476.353 194.799C476.207 195.491 475.984 196.163 475.688 196.805C475.403 197.394 475.042 197.944 474.615 198.44C474.188 198.948 473.679 199.38 473.108 199.718L470.08 201.366C470.048 201.393 470.007 201.408 469.965 201.408C469.923 201.408 469.882 201.393 469.85 201.366C469.813 201.327 469.784 201.281 469.767 201.23C469.749 201.179 469.743 201.125 469.748 201.072V189.127C469.752 188.985 469.787 188.846 469.85 188.719C469.895 188.603 469.976 188.505 470.08 188.438L473.044 186.713ZM475.011 190.686C475.006 190.34 474.954 189.996 474.858 189.664C474.798 189.412 474.67 189.182 474.487 189C474.407 188.919 474.311 188.857 474.206 188.815C474.1 188.773 473.988 188.753 473.874 188.757C473.554 188.778 473.246 188.884 472.98 189.063L471.37 189.983V198.313L473.044 197.354C473.367 197.166 473.657 196.924 473.9 196.639C474.138 196.359 474.339 196.05 474.5 195.719C474.659 195.367 474.779 194.999 474.858 194.621C474.947 194.226 474.998 193.824 475.011 193.42C475.049 192.487 475.049 191.58 475.011 190.686Z" fill="#FAFAFA"/>
<path d="M297.618 1.29726C299.823 1.78792 301.948 2.58789 303.929 3.6734C305.826 4.6932 307.526 6.04289 308.95 7.65919C310.312 9.21397 311.322 11.044 311.913 13.0247C312.516 15.1448 312.56 17.3849 312.041 19.5271C311.699 21.2256 311.026 22.8402 310.061 24.2794C309.18 25.5101 308.131 26.611 306.944 27.5498C305.778 28.4549 304.534 29.2544 303.226 29.9387L299.547 31.8933C298.439 32.4713 297.387 33.1513 296.405 33.9245C295.516 34.6062 294.835 35.5218 294.437 36.5689C294.243 37.0473 293.92 37.4628 293.505 37.7698C293.308 37.9224 293.08 38.0282 292.836 38.0791C292.593 38.13 292.341 38.1247 292.099 38.0636L286.683 36.8627C286.422 36.808 286.175 36.7019 285.955 36.5506C285.736 36.3992 285.549 36.2057 285.405 35.9813C285.252 35.7726 285.151 35.5309 285.109 35.2757C285.066 35.0205 285.085 34.7589 285.163 34.5121C285.599 32.8346 286.368 31.262 287.424 29.8876C288.387 28.6719 289.504 27.5856 290.745 26.6555C291.955 25.7701 293.237 24.9881 294.578 24.3177C295.855 23.6662 297.133 23.0402 298.244 22.4143C299.278 21.8586 300.25 21.1948 301.144 20.4341C301.928 19.7775 302.472 18.8787 302.69 17.8792C302.893 17.0112 302.883 16.107 302.661 15.2437C302.438 14.3805 302.01 13.5841 301.412 12.9225C299.919 11.2915 297.922 10.2076 295.74 9.84371C291.703 8.94946 288.297 10.3079 285.52 13.9189C285.252 14.3131 284.915 14.6551 284.524 14.9281C284.083 15.1467 283.574 15.1834 283.106 15.0303L277.344 13.7528C276.933 13.6734 276.571 13.4346 276.335 13.0885C276.209 12.9036 276.125 12.6939 276.087 12.4734C276.05 12.253 276.06 12.0271 276.118 11.811C276.608 10.0359 277.519 8.40548 278.775 7.05877C280.192 5.49697 281.874 4.1993 283.745 3.22628C285.79 2.15625 287.994 1.42292 290.273 1.05454C292.714 0.657479 295.209 0.739922 297.618 1.29726ZM291.499 42.4071C292.006 42.526 292.446 42.8386 292.725 43.2779C293.005 43.7171 293.101 44.2483 292.994 44.7577L291.614 51.0174C291.567 51.2795 291.466 51.5288 291.316 51.7489C291.166 51.9691 290.972 52.1551 290.745 52.2949C290.531 52.4423 290.289 52.5435 290.034 52.5919C289.779 52.6403 289.516 52.6348 289.263 52.5759L283.08 51.1579C282.817 51.1136 282.567 51.013 282.347 50.8631C282.126 50.7132 281.941 50.5174 281.803 50.2892C281.66 50.0734 281.562 49.8307 281.516 49.5759C281.47 49.3211 281.476 49.0596 281.535 48.8073L282.927 42.5476C283.046 42.0401 283.358 41.599 283.797 41.3176C284.236 41.0362 284.767 40.9367 285.278 41.0401L291.499 42.4071Z" fill="#F52525"/>
<path d="M304.44 61.2248C305.978 60.978 307.543 60.9479 309.09 61.1354C310.567 61.311 312.003 61.7433 313.331 62.4129C314.597 63.0693 315.711 63.9831 316.602 65.0956C317.403 66.1844 317.967 67.4291 318.257 68.7493C318.548 70.0696 318.558 71.436 318.288 72.7606C318.045 73.7789 317.653 74.756 317.126 75.6605C316.617 76.5403 316.027 77.3701 315.363 78.1388C314.711 78.9053 314.085 79.6335 313.51 80.3361C312.947 80.9907 312.447 81.6964 312.016 82.444C311.611 83.0992 311.406 83.8586 311.428 84.6285C311.417 84.9883 311.316 85.3397 311.134 85.6505C311.042 85.7937 310.92 85.9157 310.777 86.0082C310.633 86.1007 310.472 86.1617 310.304 86.187L306.471 86.8002C306.292 86.8327 306.108 86.8291 305.931 86.7897C305.753 86.7502 305.585 86.6756 305.436 86.5703C305.285 86.4754 305.159 86.346 305.068 86.1928C304.977 86.0395 304.924 85.8668 304.913 85.6888C304.752 84.5001 304.839 83.2909 305.168 82.1374C305.469 81.1162 305.898 80.1374 306.446 79.2247C306.983 78.3488 307.599 77.5235 308.285 76.7591C308.962 75.9926 309.563 75.2772 310.15 74.5874C310.675 73.9713 311.129 73.2986 311.505 72.5817C311.837 71.9647 311.958 71.2557 311.849 70.5633C311.753 69.9538 311.512 69.3766 311.145 68.8806C310.778 68.3846 310.296 67.9846 309.742 67.7145C308.368 67.051 306.814 66.8623 305.321 67.1779C303.97 67.3755 302.714 67.9861 301.723 68.9261C300.733 69.8661 300.058 71.0895 299.79 72.4284C299.715 72.7505 299.585 73.0573 299.407 73.3354C299.179 73.5779 298.869 73.728 298.538 73.757L294.501 74.4085C294.217 74.4628 293.924 74.4032 293.683 74.2425C293.56 74.1579 293.457 74.0481 293.38 73.9203C293.303 73.7925 293.254 73.6497 293.236 73.5015C293.116 72.2338 293.314 70.9562 293.811 69.784C294.316 68.42 295.06 67.1568 296.009 66.0537C297.048 64.8458 298.272 63.8109 299.637 62.9877C301.109 62.095 302.74 61.4963 304.44 61.2248ZM311.032 89.1381C311.208 89.1102 311.387 89.1172 311.561 89.1589C311.734 89.2005 311.897 89.2759 312.041 89.3808C312.192 89.4798 312.32 89.6095 312.416 89.7614C312.513 89.9133 312.577 90.084 312.603 90.2623L313.319 94.6441C313.374 94.9995 313.287 95.3625 313.077 95.6542C312.866 95.946 312.549 96.143 312.194 96.2026L307.915 96.9052C307.56 96.9602 307.197 96.873 306.906 96.6625C306.757 96.5622 306.632 96.432 306.537 96.2801C306.443 96.1283 306.381 95.9582 306.356 95.781L305.641 91.3992C305.608 91.2234 305.613 91.0427 305.655 90.8688C305.697 90.695 305.775 90.5319 305.884 90.39C305.984 90.2418 306.114 90.1164 306.266 90.0217C306.418 89.9271 306.588 89.8654 306.765 89.8407L311.032 89.1381Z" fill="#F52525"/>
<g opacity="0.2">
<path d="M304.44 61.2248C305.978 60.978 307.543 60.9479 309.09 61.1354C310.567 61.311 312.003 61.7433 313.331 62.4129C314.597 63.0693 315.711 63.9831 316.602 65.0956C317.403 66.1844 317.967 67.4291 318.257 68.7493C318.548 70.0696 318.558 71.436 318.288 72.7606C318.045 73.7789 317.653 74.756 317.126 75.6605C316.617 76.5403 316.027 77.3701 315.363 78.1388C314.711 78.9053 314.085 79.6335 313.51 80.3361C312.947 80.9907 312.447 81.6964 312.016 82.444C311.611 83.0992 311.406 83.8586 311.428 84.6285C311.417 84.9883 311.316 85.3397 311.134 85.6505C311.042 85.7937 310.92 85.9157 310.777 86.0082C310.633 86.1007 310.472 86.1617 310.304 86.187L306.471 86.8002C306.292 86.8327 306.108 86.8291 305.931 86.7897C305.753 86.7502 305.585 86.6756 305.436 86.5703C305.285 86.4754 305.159 86.346 305.068 86.1928C304.977 86.0395 304.924 85.8668 304.913 85.6888C304.752 84.5001 304.839 83.2909 305.168 82.1374C305.469 81.1162 305.898 80.1374 306.446 79.2247C306.983 78.3488 307.599 77.5235 308.285 76.7591C308.962 75.9926 309.563 75.2772 310.15 74.5874C310.675 73.9713 311.129 73.2986 311.505 72.5817C311.837 71.9647 311.958 71.2557 311.849 70.5633C311.753 69.9538 311.512 69.3766 311.145 68.8806C310.778 68.3846 310.296 67.9846 309.742 67.7145C308.368 67.051 306.814 66.8623 305.321 67.1779C303.97 67.3755 302.714 67.9861 301.723 68.9261C300.733 69.8661 300.058 71.0895 299.79 72.4284C299.715 72.7505 299.585 73.0573 299.407 73.3354C299.179 73.5779 298.869 73.728 298.538 73.757L294.501 74.4085C294.217 74.4628 293.924 74.4032 293.683 74.2425C293.56 74.1579 293.457 74.0481 293.38 73.9203C293.303 73.7925 293.254 73.6497 293.236 73.5015C293.116 72.2338 293.314 70.9562 293.811 69.784C294.316 68.42 295.06 67.1568 296.009 66.0537C297.048 64.8458 298.272 63.8109 299.637 62.9877C301.109 62.095 302.74 61.4963 304.44 61.2248ZM311.032 89.1381C311.208 89.1102 311.387 89.1172 311.561 89.1589C311.734 89.2005 311.897 89.2759 312.041 89.3808C312.192 89.4798 312.32 89.6095 312.416 89.7614C312.513 89.9133 312.577 90.084 312.603 90.2623L313.319 94.6441C313.374 94.9995 313.287 95.3625 313.077 95.6542C312.866 95.946 312.549 96.143 312.194 96.2026L307.915 96.9052C307.56 96.9602 307.197 96.873 306.906 96.6625C306.757 96.5622 306.632 96.432 306.537 96.2801C306.443 96.1283 306.381 95.9582 306.356 95.781L305.641 91.3992C305.608 91.2234 305.613 91.0427 305.655 90.8688C305.697 90.695 305.775 90.5319 305.884 90.39C305.984 90.2418 306.114 90.1164 306.266 90.0217C306.418 89.9271 306.588 89.8654 306.765 89.8407L311.032 89.1381Z" fill="black"/>
</g>
<path d="M340.568 68.1105C340.742 68.2315 340.889 68.3869 341.002 68.567C341.114 68.7471 341.188 68.9482 341.219 69.158C341.26 69.3658 341.257 69.5798 341.211 69.7865C341.165 69.9932 341.076 70.1881 340.951 70.3588L337.911 74.6385C337.789 74.8126 337.634 74.9602 337.454 75.0723C337.274 75.1843 337.073 75.2584 336.863 75.29C336.655 75.3306 336.441 75.3278 336.234 75.2816C336.028 75.2354 335.833 75.1469 335.662 75.0217L331.472 72.0451C331.297 71.9257 331.15 71.7705 331.04 71.5899C330.93 71.4093 330.859 71.2075 330.833 70.9976C330.793 70.7898 330.795 70.5758 330.842 70.3691C330.888 70.1624 330.976 69.9675 331.101 69.7967L334.18 65.5171C334.429 65.1703 334.805 64.9355 335.226 64.8638C335.647 64.792 336.079 64.8891 336.429 65.1339L340.568 68.1105ZM358.248 39.1241C359.776 40.1948 361.137 41.4864 362.285 42.9566C363.405 44.3241 364.271 45.8819 364.84 47.5555C365.37 49.1594 365.549 50.8587 365.364 52.5378C365.147 54.3283 364.469 56.0319 363.397 57.4817C362.599 58.6539 361.574 59.6532 360.382 60.4199C359.332 61.0778 358.192 61.5772 356.996 61.9018C355.832 62.2061 354.644 62.4113 353.445 62.515L350.047 62.8216C349.028 62.9031 348.019 63.0784 347.032 63.3454C346.122 63.552 345.289 64.0128 344.63 64.674C344.333 64.9761 343.957 65.1886 343.544 65.2872C343.348 65.3434 343.141 65.3519 342.941 65.3119C342.741 65.2719 342.554 65.1846 342.395 65.0572L338.69 62.4256C338.336 62.1727 338.093 61.7928 338.013 61.3653C337.965 61.1581 337.967 60.9426 338.018 60.7362C338.069 60.5297 338.168 60.3383 338.307 60.1772C339.172 59.0542 340.254 58.116 341.488 57.4178C342.599 56.8111 343.784 56.3516 345.013 56.0509C346.2 55.763 347.41 55.5792 348.629 55.5016C349.83 55.4249 350.954 55.3355 352.001 55.2333C352.96 55.1486 353.907 54.9602 354.825 54.6712C355.627 54.4038 356.319 53.8783 356.792 53.1765C357.219 52.584 357.496 51.8971 357.601 51.1742C357.706 50.4513 357.634 49.7139 357.392 49.0247C356.788 47.322 355.633 45.8698 354.109 44.8984C351.35 42.931 348.339 42.8671 345.077 44.7067C344.749 44.9157 344.385 45.0629 344.004 45.1411C343.806 45.1549 343.606 45.1293 343.418 45.0657C343.229 45.0021 343.055 44.9018 342.906 44.7706L338.971 41.9729C338.828 41.8783 338.706 41.7561 338.612 41.6134C338.518 41.4708 338.453 41.3107 338.422 41.1425C338.391 40.9687 338.397 40.7904 338.438 40.6189C338.48 40.4474 338.557 40.2864 338.664 40.1461C339.593 38.9566 340.799 38.0134 342.177 37.3995C343.743 36.6901 345.42 36.2578 347.134 36.122C349.02 35.9644 350.918 36.1154 352.755 36.5691C354.738 37.0469 356.605 37.9155 358.248 39.1241Z" fill="#F52525"/>
<g opacity="0.6">
<path d="M340.568 68.1105C340.742 68.2315 340.889 68.3869 341.002 68.567C341.114 68.7471 341.188 68.9482 341.219 69.158C341.26 69.3658 341.257 69.5798 341.211 69.7865C341.165 69.9932 341.076 70.1881 340.951 70.3588L337.911 74.6385C337.789 74.8126 337.634 74.9602 337.454 75.0723C337.274 75.1843 337.073 75.2584 336.863 75.29C336.655 75.3306 336.441 75.3278 336.234 75.2816C336.028 75.2354 335.833 75.1469 335.662 75.0217L331.472 72.0451C331.297 71.9257 331.15 71.7705 331.04 71.5899C330.93 71.4093 330.859 71.2075 330.833 70.9976C330.793 70.7898 330.795 70.5758 330.842 70.3691C330.888 70.1624 330.976 69.9675 331.101 69.7967L334.18 65.5171C334.429 65.1703 334.805 64.9355 335.226 64.8638C335.647 64.792 336.079 64.8891 336.429 65.1339L340.568 68.1105ZM358.248 39.1241C359.776 40.1948 361.137 41.4864 362.285 42.9566C363.405 44.3241 364.271 45.8819 364.84 47.5555C365.37 49.1594 365.549 50.8587 365.364 52.5378C365.147 54.3283 364.469 56.0319 363.397 57.4817C362.599 58.6539 361.574 59.6532 360.382 60.4199C359.332 61.0778 358.192 61.5772 356.996 61.9018C355.832 62.2061 354.644 62.4113 353.445 62.515L350.047 62.8216C349.028 62.9031 348.019 63.0784 347.032 63.3454C346.122 63.552 345.289 64.0128 344.63 64.674C344.333 64.9761 343.957 65.1886 343.544 65.2872C343.348 65.3434 343.141 65.3519 342.941 65.3119C342.741 65.2719 342.554 65.1846 342.395 65.0572L338.69 62.4256C338.336 62.1727 338.093 61.7928 338.013 61.3653C337.965 61.1581 337.967 60.9426 338.018 60.7362C338.069 60.5297 338.168 60.3383 338.307 60.1772C339.172 59.0542 340.254 58.116 341.488 57.4178C342.599 56.8111 343.784 56.3516 345.013 56.0509C346.2 55.763 347.41 55.5792 348.629 55.5016C349.83 55.4249 350.954 55.3355 352.001 55.2333C352.96 55.1486 353.907 54.9602 354.825 54.6712C355.627 54.4038 356.319 53.8783 356.792 53.1765C357.219 52.584 357.496 51.8971 357.601 51.1742C357.706 50.4513 357.634 49.7139 357.392 49.0247C356.788 47.322 355.633 45.8698 354.109 44.8984C351.35 42.931 348.339 42.8671 345.077 44.7067C344.749 44.9157 344.385 45.0629 344.004 45.1411C343.806 45.1549 343.606 45.1293 343.418 45.0657C343.229 45.0021 343.055 44.9018 342.906 44.7706L338.971 41.9729C338.828 41.8783 338.706 41.7561 338.612 41.6134C338.518 41.4708 338.453 41.3107 338.422 41.1425C338.391 40.9687 338.397 40.7904 338.438 40.6189C338.48 40.4474 338.557 40.2864 338.664 40.1461C339.593 38.9566 340.799 38.0134 342.177 37.3995C343.743 36.6901 345.42 36.2578 347.134 36.122C349.02 35.9644 350.918 36.1154 352.755 36.5691C354.738 37.0469 356.605 37.9155 358.248 39.1241Z" fill="white"/>
</g>
<path d="M245.432 181.194H200.043V71.2274C200.043 61.6763 203.837 52.5164 210.591 45.7627C217.344 39.009 226.504 35.2148 236.055 35.2148H240.246C249.797 35.2148 258.957 39.009 265.71 45.7627C272.464 52.5164 276.258 61.6763 276.258 71.2274V150.432C276.241 158.597 272.986 166.421 267.207 172.188C261.428 177.955 253.597 181.194 245.432 181.194Z" fill="#263238"/>
<path d="M195.623 445.93C194.82 450.486 194.393 455.1 194.345 459.727C194.179 468.107 192.646 471.084 192.442 477.957C192.199 485.813 193.566 488.751 196.747 493.171C199.928 497.592 208.244 501.59 211.847 494.13C215.449 486.669 214.926 481.776 213.789 474.073C212.626 466.101 212.511 461.694 211.796 455.626C211.208 450.273 210.518 446.198 210.518 446.198L195.623 445.93Z" fill="#263238"/>
<path d="M219.41 390.269L191.816 389.771C192.224 408.192 195.15 428.645 195.648 445.981C195.75 449.238 195.572 471.262 196.798 477.918C198.65 487.985 210.582 486.618 211.221 480.601C211.86 474.584 210.454 448.868 210.493 446.211C210.378 435.122 215.603 416.407 218.298 396.503C218.413 395.545 219.282 391.227 219.41 390.269Z" fill="#FFA8A7"/>
<path d="M254.86 431.596C254.86 431.596 253.774 431.009 253.583 432.171C253.314 433.551 252.906 436.4 252.305 438.674C251.513 441.829 250.849 447.028 251.322 449.609C251.794 452.19 257.798 455.485 261.695 456.686C266.497 458.168 270.876 460.774 274.47 464.287C278.302 467.915 286.644 471.339 292.355 471.301C299.062 471.301 303.737 469.065 305.947 465.475C308.157 461.886 303.929 461.451 296.264 456.533L290.324 452.7C278.175 444.767 273.716 440.526 270.305 432.593L254.86 431.596Z" fill="#263238"/>
<path d="M270.407 426.678C270.203 420.98 274.137 372.55 274.137 372.55L247.936 384.495C253.544 417.991 254.745 425.898 254.835 431.379C254.72 431.838 254.672 432.311 254.694 432.784C254.694 439.287 262.065 442.8 267.788 447.143C272.654 450.955 277.838 454.34 283.284 457.261C287.449 459.343 295.906 459.535 296.954 456.865C289.978 451.538 279.835 443.566 274.291 437.485C271.582 434.624 270.612 432.388 270.407 426.678Z" fill="#FFA8A7"/>
<path d="M203.122 210.513C193.055 232.601 193.055 249.693 194.728 277.888C196.21 303.757 198.676 326.56 198.676 326.56C198.293 331.147 191.918 340.102 191.088 360.388C190.321 379.346 192.365 403.453 192.365 403.453C192.365 403.453 206.686 411.386 217.276 403.376C217.276 403.376 227.496 354.589 230.485 330.853C233.04 310.145 237.639 283.688 237.639 283.688L247.31 330.712C245.223 337.384 243.71 344.222 242.788 351.152C241.434 365.115 249.252 392.53 249.252 392.53C249.252 392.53 264.045 396.938 273.077 388.928C273.077 388.928 276.45 344.356 277.714 327.544C279.401 305.022 275.849 244.06 273.077 211.777L203.122 210.513Z" fill="#455A64"/>
<path d="M237.665 283.649L241.638 248.212C241.638 248.212 259.446 245.835 267.52 238.247C265.209 241.862 262.131 244.925 258.503 247.217C254.876 249.508 250.788 250.973 246.531 251.507L240.782 284.48L247.31 330.712L237.665 283.649Z" fill="#263238"/>
<path d="M309.78 201.8C310.515 195.334 310.84 188.827 310.751 182.319C310.355 176.698 309.345 175.778 301.489 165.826C290.885 152.374 281.828 140.276 272.247 128.255C265.399 119.67 258.194 118.354 251.194 118.738C246.288 119.006 255.869 142.601 260.685 156.564L288.19 186.177C289.042 187.345 289.433 188.787 289.289 190.226L287.628 215.419L295.868 226.456C295.868 226.456 308.349 215.7 309.78 201.8Z" fill="#FFA8A7"/>
<path d="M224.673 119.504C219.346 119.875 209.662 120.782 209.662 120.782C204.08 123.899 202.662 126.466 201.627 133.876C201.18 137.044 203.76 145.463 205.97 157.433L210.161 179.623L209.701 190.635C207.529 197.355 202.611 205.697 198.267 217.999C219.601 229.905 237.486 230.352 253.71 228.219C266.077 226.622 272.63 223.633 274.815 220.669C274.355 208.52 273.537 201.008 273.282 188.31C273.192 182.983 273.512 177.592 273.729 171.46C282.02 164.638 282.122 153.294 277.561 145.91C267.047 128.881 256.815 118.163 250.044 118.712L224.673 119.504Z" fill="#F52525"/>
<path opacity="0.6" d="M224.673 119.504C219.346 119.875 209.662 120.782 209.662 120.782C204.08 123.899 202.662 126.466 201.627 133.876C201.18 137.044 203.76 145.463 205.97 157.433L210.161 179.623L209.701 190.635C207.529 197.355 202.611 205.697 198.267 217.999C219.601 229.905 237.486 230.352 253.71 228.219C266.077 226.622 272.63 223.633 274.815 220.669C274.355 208.52 273.537 201.008 273.282 188.31C273.192 182.983 273.512 177.592 273.729 171.46C282.02 164.638 282.122 153.294 277.561 145.91C267.047 128.881 256.815 118.163 250.044 118.712L224.673 119.504Z" fill="white"/>
<path opacity="0.1" d="M257.211 171.626C257.211 171.626 247.476 179.189 236.349 175.241C233.225 174.257 230.407 172.483 228.169 170.09C225.931 167.698 224.348 164.768 223.574 161.585C223.574 161.585 222.399 174.296 236.413 178.627C249.993 182.804 257.211 171.626 257.211 171.626Z" fill="black"/>
<path d="M270.42 84.6157C269.998 103.063 264.032 107.611 261.017 108.888C258.003 110.166 252.228 109.399 246.607 108.467V119.606C246.607 119.606 253.097 126.403 252.612 131.474C252.126 136.546 242.392 137.121 235.135 132.151C231.132 129.401 227.51 126.132 224.366 122.43C223.762 121.715 223.432 120.81 223.434 119.875V93.8137C223.434 93.8137 220.355 97.0713 214.913 93.341C213.738 92.5916 212.733 91.6061 211.96 90.4471C211.187 89.2881 210.664 87.981 210.424 86.6089C210.184 85.2368 210.231 83.8297 210.564 82.4771C210.897 81.1244 211.508 79.8559 212.358 78.752C214.734 75.9543 220.764 75.7627 223.651 80.0295C225.286 83.2105 225.503 86.417 227.33 85.1395C232.184 81.6391 229.578 73.642 235.442 69.8095C237.366 68.8052 239.365 67.951 241.421 67.2545C251.883 63.6392 260.954 60.5988 263.138 53.4448C267.252 55.7954 270.931 62.86 270.42 84.6157Z" fill="#FFA8A7"/>
<path d="M249.789 101.095C251.129 101.095 252.216 100.008 252.216 98.668C252.216 97.3274 251.129 96.2407 249.789 96.2407C248.448 96.2407 247.361 97.3274 247.361 98.668C247.361 100.008 248.448 101.095 249.789 101.095Z" fill="#B16668"/>
<path d="M248.179 81.818C248.178 82.3177 248.031 82.8063 247.756 83.2233C247.48 83.6402 247.088 83.9672 246.629 84.1638C246.169 84.3604 245.662 84.4179 245.171 84.3292C244.679 84.2405 244.224 84.0096 243.862 83.6649C243.5 83.3203 243.247 82.877 243.134 82.3901C243.022 81.9032 243.055 81.394 243.229 80.9255C243.403 80.457 243.71 80.0498 244.113 79.7543C244.516 79.4588 244.997 79.2879 245.496 79.263C245.842 79.2456 246.188 79.2989 246.513 79.4195C246.838 79.5401 247.135 79.7256 247.386 79.9646C247.637 80.2036 247.837 80.4911 247.973 80.8098C248.109 81.1284 248.179 81.4714 248.179 81.818Z" fill="#263238"/>
<path d="M267.533 82.0734C267.559 82.386 267.523 82.7006 267.426 82.999C267.329 83.2973 267.174 83.5735 266.969 83.8113C266.765 84.0491 266.515 84.2438 266.235 84.3841C265.954 84.5244 265.648 84.6074 265.335 84.6284C265.02 84.6575 264.701 84.6192 264.402 84.5159C264.102 84.4126 263.827 84.2467 263.597 84.0292C263.366 83.8117 263.184 83.5476 263.063 83.2545C262.942 82.9613 262.885 82.6458 262.895 82.3289C262.862 82.014 262.894 81.6957 262.989 81.3936C263.083 81.0914 263.238 80.8116 263.444 80.5715C263.651 80.3314 263.904 80.1359 264.188 79.9971C264.473 79.8583 264.783 79.7791 265.099 79.7643C265.415 79.7495 265.731 79.7994 266.028 79.911C266.324 80.0226 266.594 80.1935 266.822 80.4133C267.05 80.6331 267.23 80.8971 267.353 81.1892C267.475 81.4812 267.536 81.7951 267.533 82.1117V82.0734Z" fill="#263238"/>
<path d="M244.896 88.3843C242.692 88.3843 240.579 87.5099 239.019 85.953C237.46 84.3961 236.582 82.2841 236.579 80.0806C236.579 74.4341 242.404 74.4341 244.896 74.4341C247.387 74.4341 253.199 74.4341 253.199 80.0806C253.196 82.2819 252.32 84.392 250.763 85.9485C249.207 87.505 247.097 88.381 244.896 88.3843ZM244.896 75.7371C239.786 75.7371 237.895 77.0146 237.895 80.0806C237.895 81.9441 238.635 83.7312 239.953 85.0489C241.271 86.3666 243.058 87.1068 244.921 87.1068C246.785 87.1068 248.572 86.3666 249.889 85.0489C251.207 83.7312 251.947 81.9441 251.947 80.0806C251.896 76.9507 249.929 75.7371 244.896 75.7371Z" fill="#455A64"/>
<path d="M265.987 88.3843C263.784 88.3843 261.67 87.5099 260.111 85.953C258.552 84.3961 257.674 82.2841 257.671 80.0806C257.671 74.4341 263.496 74.4341 265.987 74.4341C268.478 74.4341 274.291 74.4341 274.291 80.0806C274.287 82.2819 273.412 84.392 271.855 85.9485C270.299 87.505 268.188 88.381 265.987 88.3843ZM265.987 75.7371C260.954 75.7371 258.986 77.0146 258.986 80.0806C258.986 81.9441 259.727 83.7312 261.044 85.0489C262.362 86.3666 264.149 87.1068 266.013 87.1068C267.876 87.1068 269.663 86.3666 270.981 85.0489C272.299 83.7312 273.039 81.9441 273.039 80.0806C272.988 76.9507 271.02 75.7371 265.987 75.7371Z" fill="#455A64"/>
<path d="M254.49 77.3979L254.899 92.9195L263.062 90.3901L254.49 77.3979Z" fill="#F28F8F"/>
<path d="M246.595 108.505C240.667 107.726 228.467 104.225 226.563 99.3965C227.33 101.837 228.823 103.985 230.843 105.554C234.484 108.684 246.595 112.197 246.595 112.197V108.505Z" fill="#F28F8F"/>
<path d="M246.889 69.8606L241.472 73.1694C241.045 72.4258 240.921 71.5463 241.126 70.7137C241.33 69.881 241.848 69.1592 242.571 68.6981C242.928 68.4813 243.326 68.3391 243.74 68.2803C244.153 68.2215 244.575 68.2471 244.978 68.3558C245.382 68.4645 245.759 68.6539 246.088 68.9125C246.416 69.1711 246.689 69.4937 246.889 69.8606Z" fill="#263238"/>
<path d="M268.926 73.54L262.896 71.4321C263.012 71.0325 263.21 70.661 263.475 70.3404C263.741 70.0198 264.069 69.7569 264.44 69.5678C264.811 69.3788 265.217 69.2676 265.632 69.2411C266.048 69.2145 266.464 69.2733 266.856 69.4137C267.665 69.7043 268.331 70.2948 268.716 71.0629C269.101 71.8311 269.176 72.718 268.926 73.54Z" fill="#263238"/>
<path d="M252.548 80.745C252.461 80.745 252.375 80.7278 252.296 80.6942C252.216 80.6607 252.143 80.6116 252.083 80.5497C252.022 80.4879 251.974 80.4145 251.942 80.334C251.91 80.2535 251.895 80.1674 251.896 80.0807C251.896 79.0204 253.991 78.3306 255.882 78.3306C257.773 78.3306 258.986 79.0204 258.986 80.0807C258.947 80.2195 258.863 80.3417 258.748 80.4286C258.633 80.5155 258.492 80.5626 258.348 80.5626C258.203 80.5626 258.063 80.5155 257.948 80.4286C257.832 80.3417 257.749 80.2195 257.709 80.0807C257.709 79.953 257.057 79.6336 255.92 79.6336C255.005 79.6141 254.094 79.7702 253.238 80.0935C253.238 80.1824 253.22 80.2704 253.185 80.352C253.15 80.4337 253.098 80.5073 253.034 80.5683C252.969 80.6293 252.893 80.6765 252.809 80.7069C252.725 80.7373 252.637 80.7503 252.548 80.745Z" fill="#455A64"/>
<path d="M237.256 80.1827H237.18L222.578 78.9052C221.896 78.229 221.083 77.6987 220.189 77.3467L237.333 78.9308C237.505 78.9532 237.661 79.0418 237.769 79.1779C237.876 79.3139 237.926 79.4866 237.908 79.659C237.878 79.8088 237.796 79.9434 237.677 80.0391C237.558 80.1349 237.409 80.1857 237.256 80.1827Z" fill="#455A64"/>
<path d="M177.303 95.4105C182.081 89.023 185.339 84.2069 189.695 78.8031C192.174 75.6988 193.758 73.4759 196.083 70.295C197.718 68.0977 198.638 66.2453 200.503 65.5682C202.518 64.7425 204.334 63.497 205.83 61.9146C206.75 60.8972 207.603 59.8219 208.385 58.6953C211.123 55.0098 214.375 51.7359 218.043 48.9735C221.875 46.0864 226.155 43.8636 230.102 41.1169C232.453 39.469 234.97 36.7351 232.108 34.1801C231.23 33.441 230.18 32.9356 229.055 32.711C222.092 31.2036 216.037 33.5925 209.228 35.3299C206.27 36.0681 203.378 37.0465 200.579 38.2554C199.203 38.7997 197.912 39.5398 196.747 40.4527C195.118 42.0952 193.783 44.0051 192.8 46.0992C189.823 51.4136 183.435 56.1658 178.964 60.3688C173.739 65.2872 169.064 69.7967 163.098 75.2133C157.732 80.1061 152.482 84.6029 147.563 89.9428C143.488 94.3502 145.008 97.7994 145.545 99.0003C148.866 105.822 152.584 108.275 157.042 112.503C164.707 119.823 191.215 140.889 199.992 147.852C201.877 149.333 203.358 151.266 204.297 153.473L205.983 157.369C215.999 159.209 222.68 144.173 214.389 126.07C213.016 123.143 210.919 120.615 208.296 118.725C197.82 111.098 177.303 95.4105 177.303 95.4105Z" fill="#FFA8A7"/>
<path d="M177.303 95.4106C174.115 99.3323 169.867 102.255 165.065 103.829C165.065 103.829 171.452 105.465 180.203 97.6079L177.303 95.4106Z" fill="#F28F8F"/>
<path d="M307.174 188.476L305.538 187.071C305.294 186.91 305.015 186.809 304.725 186.775C304.434 186.742 304.139 186.778 303.865 186.879L286.121 191.708C285.227 192.006 284.408 192.494 283.72 193.138C283.032 193.781 282.491 194.566 282.135 195.438L269.36 232.269C269.206 232.569 269.146 232.908 269.187 233.243C269.228 233.578 269.368 233.892 269.59 234.146L271.276 235.603C271.521 235.772 271.804 235.879 272.1 235.915C272.396 235.95 272.697 235.913 272.975 235.807L290.745 230.978C291.639 230.68 292.458 230.193 293.146 229.549C293.834 228.905 294.374 228.12 294.731 227.248C297.286 220.005 304.951 197.661 307.506 190.418C307.812 189.511 307.659 188.821 307.174 188.476Z" fill="#455A64"/>
<path d="M271.033 233.687L283.808 196.857C284.163 195.985 284.704 195.201 285.392 194.559C286.08 193.917 286.9 193.433 287.794 193.139L305.526 188.31C307.174 187.863 308.081 188.808 307.493 190.418C304.938 197.661 297.273 220.005 294.718 227.248C294.361 228.12 293.821 228.905 293.133 229.549C292.445 230.193 291.626 230.68 290.732 230.978L273.001 235.858C271.365 236.242 270.484 235.296 271.033 233.687Z" fill="#F52525"/>
<path d="M285.865 194.161C284.943 194.86 284.227 195.796 283.795 196.869L271.02 233.687C270.874 233.979 270.813 234.307 270.845 234.632C270.877 234.958 270.999 235.268 271.199 235.526L269.615 234.172C269.388 233.921 269.243 233.607 269.2 233.271C269.157 232.936 269.217 232.595 269.372 232.294L282.147 195.464C282.551 194.463 283.207 193.583 284.051 192.909L285.865 194.161Z" fill="#37474F"/>
<path d="M302.306 205.262C301.029 209.005 296.596 211.509 289.263 213.247C281.93 214.984 277.881 222.764 279.043 225.127C280.206 227.491 292.061 229.701 296.8 229.024C301.54 228.347 306.292 221.499 307.736 219.379C309.179 217.258 310.84 202.464 309.32 200.433C307.8 198.402 304.593 198.721 304.593 198.721L302.306 205.262Z" fill="#F28F8F"/>
</svg>
