<svg width="546" height="535" viewBox="0 0 546 535" fill="none" xmlns="http://www.w3.org/2000/svg">
<path d="M545.041 359.971H335.948V238.973H545.041V359.971ZM337.223 358.695H543.765V240.248H337.223V358.695Z" fill="#E0E0E0"/>
<path d="M501.905 303.491H363.952V307.535H501.905V303.491Z" fill="#F0F0F0"/>
<path d="M511.41 318.571H363.952V322.985H511.41V318.571Z" fill="#F0F0F0"/>
<path d="M511.41 333.83H363.952V338.244H511.41V333.83Z" fill="#F0F0F0"/>
<path d="M412.165 281.585H363.952V292.085H412.165V281.585Z" fill="#F0F0F0"/>
<path d="M544.403 239.611H336.624V258.876H544.403V239.611Z" fill="#E0E0E0"/>
<path d="M528.417 255.992C528.149 255.737 530.828 252.509 534.388 248.784C537.947 245.058 541.073 242.239 541.328 242.481C541.583 242.724 538.917 245.964 535.357 249.702C531.798 253.441 528.672 256.247 528.417 255.992Z" fill="white"/>
<path d="M541.354 255.992C541.098 256.247 537.985 253.441 534.413 249.703C530.841 245.964 528.174 242.737 528.442 242.481C528.71 242.226 531.811 245.033 535.383 248.784C538.955 252.535 541.596 255.737 541.354 255.992Z" fill="white"/>
<path d="M287.747 0H79.9683V119.735H287.747V0Z" fill="#E6E6E6"/>
<path d="M245.262 63.8926H107.309V67.9369H245.262V63.8926Z" fill="#F0F0F0"/>
<path d="M254.767 78.9727H107.309V83.387H254.767V78.9727Z" fill="#F0F0F0"/>
<path d="M254.767 94.2314H107.309V98.6458H254.767V94.2314Z" fill="#F0F0F0"/>
<path d="M155.522 41.9868H107.309V52.4868H155.522V41.9868Z" fill="#F0F0F0"/>
<path d="M287.747 0H79.9683V19.2648H287.747V0Z" fill="#E0E0E0"/>
<path d="M271.059 16.292C270.792 16.0496 273.471 12.809 277.03 9.08363C280.59 5.35825 283.716 2.53871 283.971 2.79387C284.226 3.04903 281.559 6.27684 278 10.0022C274.44 13.7276 271.315 16.5216 271.059 16.292Z" fill="white"/>
<path d="M283.971 16.2921C283.716 16.5472 280.603 13.7404 277.03 10.0023C273.458 6.26415 270.792 3.0491 271.06 2.79394C271.327 2.53877 274.428 5.34556 278 9.0837C281.572 12.8218 284.239 16.0496 283.971 16.2921Z" fill="white"/>
<path d="M209.055 222.426H0V101.415H209.055V222.426ZM1.27581 221.15H207.779V102.69H1.27581V221.15Z" fill="#E0E0E0"/>
<path d="M165.932 165.945H27.9785V169.99H165.932V165.945Z" fill="#F0F0F0"/>
<path d="M175.437 181.025H27.9785V185.44H175.437V181.025Z" fill="#F0F0F0"/>
<path d="M175.437 196.284H27.9785V200.699H175.437V196.284Z" fill="#F0F0F0"/>
<path d="M76.1915 144.04H27.9785V154.539H76.1915V144.04Z" fill="#F0F0F0"/>
<path d="M208.417 102.052H0.637695V121.317H208.417V102.052Z" fill="#E0E0E0"/>
<path d="M450.324 250.149H204.985V469.793H450.324V250.149Z" fill="#E6E6E6"/>
<path d="M217.322 180.961H25.1338V380.639H217.322V180.961Z" fill="#F0F0F0"/>
<path d="M217.322 180.961H25.1338V202.714H217.322V180.961Z" fill="#E0E0E0"/>
<path d="M41.0045 191.614C40.9695 192.403 40.7037 193.164 40.24 193.804C39.7762 194.443 39.1351 194.931 38.396 195.209C37.6569 195.487 36.8525 195.542 36.0826 195.367C35.3127 195.192 34.6111 194.794 34.065 194.224C33.5189 193.654 33.1523 192.936 33.0107 192.159C32.8691 191.382 32.9587 190.581 33.2684 189.855C33.5781 189.128 34.0942 188.509 34.7528 188.073C35.4113 187.638 36.1833 187.405 36.9729 187.404C38.0648 187.431 39.1018 187.889 39.8572 188.678C40.6126 189.467 41.0251 190.522 41.0045 191.614Z" fill="white"/>
<path d="M57.3734 191.614C57.3408 192.407 57.0759 193.173 56.6117 193.816C56.1474 194.459 55.5043 194.951 54.7622 195.232C54.0202 195.512 53.2122 195.568 52.4386 195.393C51.6649 195.218 50.96 194.819 50.4114 194.246C49.8627 193.673 49.4947 192.951 49.3531 192.171C49.2114 191.39 49.3025 190.585 49.6148 189.856C49.9271 189.127 50.4469 188.506 51.1096 188.07C51.7723 187.634 52.5485 187.402 53.3418 187.404C54.4337 187.431 55.4706 187.889 56.226 188.678C56.9814 189.467 57.3939 190.522 57.3734 191.614Z" fill="white"/>
<path d="M73.742 191.614C73.7095 192.407 73.4446 193.173 72.9803 193.816C72.5161 194.459 71.8729 194.951 71.1309 195.232C70.3889 195.512 69.5808 195.568 68.8072 195.393C68.0336 195.218 67.3286 194.819 66.78 194.246C66.2314 193.673 65.8634 192.951 65.7217 192.171C65.5801 191.39 65.6711 190.585 65.9834 189.856C66.2957 189.127 66.8156 188.506 67.4783 188.07C68.1409 187.634 68.9172 187.402 69.7104 187.404C70.8023 187.431 71.8393 187.889 72.5947 188.678C73.3501 189.467 73.7626 190.522 73.742 191.614Z" fill="white"/>
<path d="M517.598 43.6709H272.259V288.193H517.598V43.6709Z" fill="#F0F0F0"/>
<path d="M517.598 43.6709H272.259V72.3129H517.598V43.6709Z" fill="#E0E0E0"/>
<path d="M293.157 57.7051C293.112 58.7463 292.762 59.7514 292.151 60.5956C291.539 61.4398 290.694 62.0858 289.718 62.4535C288.743 62.8212 287.681 62.8943 286.665 62.6638C285.648 62.4334 284.722 61.9094 284.001 61.157C283.28 60.4047 282.795 59.457 282.608 58.4318C282.421 57.4065 282.538 56.3488 282.947 55.39C283.356 54.4311 284.037 53.6134 284.906 53.0384C285.775 52.4633 286.794 52.1562 287.836 52.1553C289.277 52.1888 290.645 52.7915 291.642 53.8316C292.64 54.8717 293.184 56.2645 293.157 57.7051Z" fill="white"/>
<path d="M313.149 53.9541C313.856 54.7222 314.321 55.6815 314.487 56.7123C314.653 57.7432 314.512 58.8001 314.082 59.7514C313.651 60.7026 312.951 61.5062 312.067 62.0619C311.183 62.6177 310.155 62.901 309.111 62.8767C308.067 62.8523 307.053 62.5213 306.196 61.925C305.339 61.3286 304.677 60.4932 304.291 59.5229C303.905 58.5526 303.814 57.4903 304.028 56.4683C304.241 55.4463 304.751 54.5098 305.494 53.7755C306.533 52.7861 307.923 52.2492 309.358 52.2827C310.793 52.3162 312.156 52.9173 313.149 53.9541Z" fill="white"/>
<path d="M336.253 57.7051C336.209 58.7463 335.859 59.7514 335.247 60.5956C334.636 61.4398 333.79 62.0858 332.815 62.4535C331.84 62.8212 330.778 62.8943 329.762 62.6638C328.745 62.4334 327.819 61.9094 327.098 61.157C326.377 60.4047 325.892 59.457 325.705 58.4318C325.517 57.4065 325.635 56.3488 326.044 55.39C326.452 54.4311 327.134 53.6134 328.003 53.0384C328.872 52.4633 329.891 52.1562 330.933 52.1553C332.374 52.1888 333.742 52.7915 334.739 53.8316C335.736 54.8717 336.281 56.2645 336.253 57.7051Z" fill="white"/>
<path d="M464.601 534.669C464.601 534.847 376.008 535 266.76 535C157.512 535 68.8813 534.847 68.8813 534.669C68.8813 534.49 157.461 534.337 266.76 534.337C376.059 534.337 464.601 534.503 464.601 534.669Z" fill="#263238"/>
<path d="M378.279 378.483C358.568 364.717 354.103 339.163 354.881 316.185C355.008 312.358 354.587 308.301 356.412 304.945C358.236 301.59 362.497 299.281 365.929 300.888C368.774 302.228 370.012 305.545 371.607 308.288C373.735 311.942 376.853 314.918 380.601 316.874C383.038 318.15 386.062 318.916 388.473 317.589C391.79 315.764 392.173 311.21 392.147 307.382C392.147 300.263 392.105 293.153 392.02 286.051C391.79 282.237 392.178 278.411 393.168 274.721C394.354 271.098 396.995 267.743 400.606 266.722C404.217 265.701 408.72 267.807 409.537 271.532C409.677 273.11 409.716 274.695 409.651 276.278C409.754 277.873 410.494 279.621 411.986 280.105C413.479 280.59 415.035 279.48 416.184 278.358C420.113 274.53 422.792 269.542 425.28 264.617C427.768 259.692 430.205 254.627 433.777 250.43C437.349 246.233 442.287 242.903 447.811 242.584C453.335 242.265 459.089 245.658 460.467 251.017C461.845 256.375 458.719 261.848 455.364 266.199C450.301 272.657 444.332 278.35 437.643 283.104C436.337 283.816 435.295 284.93 434.67 286.28C433.841 288.832 436.252 291.384 438.766 292.187C441.611 293.131 444.698 292.838 447.696 293.195C450.694 293.552 453.884 294.854 455.019 297.661C456.576 301.565 453.31 305.647 450.108 308.326C443.677 313.685 436.376 317.901 428.521 320.791C425.714 321.812 422.767 322.718 420.496 324.682C418.225 326.647 416.873 330.079 418.238 332.771C419.603 335.463 423.111 336.318 426.058 335.769C429.006 335.221 431.621 333.639 434.428 332.58C439.671 330.602 446.433 330.959 449.738 335.488C450.761 337.049 451.409 338.825 451.631 340.678C451.852 342.531 451.641 344.41 451.013 346.167C449.736 349.665 447.771 352.87 445.234 355.595C436.878 365.579 426.021 373.165 413.772 377.578C401.614 381.788 390.348 382.936 378.266 378.509" fill="#21A636"/>
<path d="M454.854 245.735C454.854 245.735 454.739 245.862 454.484 246.092L453.348 247.1C452.353 247.993 450.886 249.294 449.036 251.017C443.791 255.887 438.92 261.145 434.466 266.748C431.621 270.282 428.674 274.288 425.535 278.638C422.397 282.989 419.156 287.684 415.941 292.672C412.514 297.932 409.375 303.375 406.539 308.977C405.059 311.899 403.757 314.948 402.418 318.061L398.463 327.566C393.249 339.538 388.709 351.792 384.862 364.271C381.764 374.481 379.628 384.958 378.483 395.567C377.741 402.725 377.622 409.935 378.126 417.115C378.33 419.667 378.522 421.619 378.7 422.945C378.777 423.583 378.828 424.094 378.879 424.464V424.987C378.824 424.821 378.785 424.65 378.764 424.476C378.7 424.106 378.624 423.609 378.522 422.971C378.292 421.695 378.05 419.679 377.82 417.128C377.204 409.935 377.247 402.701 377.948 395.515C379.022 384.862 381.111 374.336 384.186 364.079C388 351.566 392.528 339.281 397.748 327.285L401.805 317.818C403.145 314.718 404.459 311.643 405.952 308.709C408.808 303.091 411.972 297.635 415.431 292.366C418.697 287.263 421.989 282.644 425.089 278.332C428.189 274.02 431.187 269.988 434.02 266.467C438.519 260.879 443.455 255.658 448.781 250.851C450.669 249.154 452.174 247.878 453.195 247.023L454.382 246.067C454.527 245.94 454.685 245.829 454.854 245.735Z" fill="#263238"/>
<path d="M406.117 308.684C405.937 308.158 405.813 307.615 405.747 307.063C405.543 306.005 405.314 304.512 405.046 302.573C404.497 298.745 403.936 293.501 403.336 287.697C402.737 281.892 402.06 276.635 401.499 272.846C401.206 270.958 400.95 269.44 400.772 268.381C400.632 267.839 400.56 267.282 400.555 266.722C400.775 267.233 400.933 267.769 401.027 268.317C401.308 269.363 401.627 270.869 401.984 272.77C402.711 276.597 403.425 281.802 404.025 287.62C404.625 293.438 405.135 298.541 405.531 302.509C405.722 304.295 405.888 305.813 406.015 307.025C406.115 307.572 406.149 308.129 406.117 308.684Z" fill="#263238"/>
<path d="M455.211 299.523C454.59 299.659 453.958 299.735 453.323 299.753C452.047 299.868 450.235 300.021 447.99 300.276C443.499 300.761 437.324 301.654 430.549 302.93C423.775 304.206 417.689 305.647 413.313 306.757C411.131 307.319 409.371 307.829 408.21 308.173C407.59 308.394 406.948 308.548 406.296 308.633C406.886 308.336 407.501 308.093 408.133 307.906C409.333 307.485 411.068 306.898 413.237 306.272C417.587 304.997 423.673 303.478 430.473 302.177C436.233 301.076 442.046 300.267 447.888 299.753C450.146 299.562 451.97 299.485 453.246 299.46C453.902 299.415 454.56 299.436 455.211 299.523Z" fill="#263238"/>
<path d="M384.811 363.186C384.675 363.002 384.564 362.8 384.48 362.587L383.638 360.813C382.911 359.27 381.928 356.986 380.754 354.192C378.381 348.578 375.358 340.719 372.143 331.993C368.928 323.266 365.968 315.407 363.722 309.73C362.625 306.974 361.719 304.716 361.043 303.032L360.329 301.207C360.23 300.997 360.161 300.774 360.125 300.544C360.261 300.729 360.372 300.93 360.456 301.144L361.298 302.917C362.013 304.461 363.008 306.744 364.182 309.538C366.555 315.152 369.578 323.011 372.793 331.738C376.008 340.464 378.968 348.323 381.214 354.001C382.311 356.756 383.217 359.015 383.88 360.699C384.174 361.426 384.416 361.974 384.607 362.523C384.706 362.733 384.775 362.957 384.811 363.186Z" fill="#263238"/>
<path d="M449.98 342.174C449.776 342.291 449.557 342.381 449.329 342.442L447.441 343.08L440.462 345.338C434.568 347.252 426.428 349.982 417.498 352.993C408.567 356.004 400.389 358.683 394.456 360.469C391.497 361.375 389.085 362.064 387.414 362.523L385.487 363.021C385.263 363.092 385.033 363.139 384.799 363.161C385.003 363.044 385.222 362.954 385.449 362.893L387.337 362.255L394.316 359.997C400.21 358.083 408.35 355.353 417.281 352.342C426.212 349.331 434.377 346.652 440.309 344.866C443.282 343.96 445.68 343.271 447.364 342.812L449.291 342.314C449.515 342.243 449.746 342.196 449.98 342.174Z" fill="#263238"/>
<path d="M423.392 32.6993L416.822 35.0468L414.002 26.4605C408.822 10.6277 392.313 2.22006 377.144 7.56572C361.974 12.9114 353.898 30.2752 359.078 46.1081L361.898 54.6943L355.302 57.0546C352.787 58.0301 350.744 59.9374 349.599 62.38C348.454 64.8225 348.294 67.6125 349.152 70.1699L367.435 126.038C367.814 127.304 368.444 128.481 369.288 129.498C370.131 130.516 371.17 131.354 372.344 131.962C373.517 132.57 374.801 132.936 376.118 133.039C377.436 133.141 378.761 132.977 380.014 132.557L448.104 108.202C450.653 107.228 452.724 105.304 453.883 102.834C455.042 100.364 455.198 97.5413 454.318 94.959L436.023 39.0911C435.633 37.8286 434.993 36.6575 434.142 35.6477C433.29 34.6378 432.243 33.8099 431.064 33.2134C429.886 32.6168 428.599 32.2638 427.28 32.1755C425.962 32.0872 424.64 32.2653 423.392 32.6993ZM371.492 41.63C370.095 37.5132 370.346 33.0156 372.191 29.0796C374.037 25.1435 377.334 22.0744 381.392 20.5152C383.396 19.8297 385.517 19.5547 387.63 19.7069C389.742 19.859 391.802 20.4351 393.687 21.4007C395.572 22.3664 397.243 23.7018 398.6 25.3274C399.958 26.9529 400.974 28.8353 401.588 30.8621L404.395 39.4483L374.299 50.2162L371.492 41.63ZM409.766 91.2081L414.436 105.472C414.521 105.758 414.494 106.066 414.358 106.332C414.223 106.598 413.99 106.802 413.709 106.901L407.164 109.235C406.903 109.308 406.625 109.276 406.387 109.148C406.149 109.019 405.97 108.804 405.888 108.546L401.18 94.3466C398.584 94.2052 396.093 93.2741 394.041 91.678C391.989 90.082 390.474 87.8971 389.698 85.4159C388.588 82.1357 388.79 78.5534 390.263 75.4191C391.735 72.2847 394.362 69.8414 397.595 68.6007C399.191 68.0553 400.881 67.8369 402.563 67.9584C404.246 68.0799 405.886 68.5389 407.388 69.308C408.889 70.0771 410.22 71.1405 411.302 72.435C412.383 73.7294 413.193 75.2284 413.683 76.8424C414.504 79.3629 414.572 82.068 413.878 84.6264C413.185 87.1848 411.76 89.4854 409.779 91.2464L409.766 91.2081Z" fill="#FF1611"/>
<path d="M416.528 34.8937C416.528 35.0723 404.344 39.6525 389.187 45.1002C374.031 50.5479 361.668 54.924 361.604 54.7964C361.54 54.6688 373.788 50.0504 388.958 44.5899C404.127 39.1294 416.464 34.7278 416.528 34.8937Z" fill="#263238"/>
<path d="M430.996 37.2412C431.052 37.3519 431.099 37.4671 431.136 37.5857C431.238 37.8408 431.353 38.1726 431.506 38.5808C431.838 39.5122 432.297 40.8007 432.871 42.4083L437.77 56.6719C439.812 62.7192 442.249 69.8893 444.953 77.8504C446.229 81.8437 447.735 86.0028 449.138 90.3789C449.889 92.6339 450.214 95.0092 450.095 97.3831C449.987 98.6177 449.635 99.8187 449.061 100.917C448.448 102.012 447.629 102.978 446.65 103.762C444.679 105.201 442.491 106.316 440.169 107.067L433.599 109.427L421.159 113.879L400.096 121.381L385.87 126.382L382.043 127.658L381.022 127.99C380.913 128.038 380.797 128.069 380.678 128.079C380.678 128.079 380.78 128.079 380.997 127.926L381.992 127.531L385.819 126.089L399.968 120.884L420.993 113.229L433.407 108.738L439.978 106.365C442.234 105.645 444.358 104.564 446.267 103.163C447.179 102.435 447.941 101.538 448.513 100.522C449.053 99.5058 449.379 98.3897 449.47 97.2428C449.587 94.9555 449.276 92.6664 448.551 90.4937C447.173 86.1559 445.719 81.9585 444.405 77.9652C441.751 69.9914 439.301 62.7958 437.362 56.7484C435.423 50.701 433.79 45.8402 432.667 42.421C432.131 40.7497 431.723 39.4484 431.391 38.5043L431.085 37.4836C431.047 37.4063 431.017 37.325 430.996 37.2412Z" fill="#263238"/>
<path d="M395.069 19.6474C395.069 19.6474 394.393 19.3157 393.142 18.8054C391.36 18.1206 389.475 17.7411 387.567 17.6827C384.739 17.5857 381.924 18.1173 379.325 19.2392C376.166 20.6361 373.464 22.8957 371.53 25.7586C369.583 28.6132 368.539 31.9868 368.532 35.442C368.559 38.274 368.988 41.0877 369.808 43.7986C370.471 46.1206 371.16 47.9705 371.619 49.2591C371.89 49.9136 372.112 50.5874 372.283 51.2749C371.92 50.6629 371.617 50.0179 371.377 49.3484C370.854 48.0726 370.101 46.2609 369.361 43.9262C368.453 41.1868 367.958 38.3273 367.894 35.442C367.86 31.8562 368.929 28.3466 370.956 25.3886C372.957 22.4212 375.769 20.0917 379.057 18.6778C381.737 17.5498 384.64 17.0522 387.542 17.2234C389.491 17.3227 391.407 17.7767 393.193 18.563C393.671 18.7834 394.132 19.0393 394.571 19.3285C394.753 19.4082 394.921 19.5158 395.069 19.6474Z" fill="#263238"/>
<path d="M395.656 69.5703C395.859 69.4469 396.073 69.3403 396.294 69.2514C396.932 68.9632 397.594 68.7285 398.271 68.5497C399.347 68.2323 400.456 68.0438 401.576 67.9883C403.099 67.9065 404.623 68.1366 406.054 68.6645C409.32 69.8127 412.318 73.1426 413.798 77.5952C414.508 79.9847 414.508 82.5289 413.798 84.9184C413.011 87.5118 411.6 89.8729 409.69 91.795L409.766 91.4505C411.463 96.1073 413.313 101.159 415.227 106.429L415.342 106.748L415.023 106.862L412.101 107.832L405.722 109.963L405.403 110.065L405.301 109.746C403.553 104.464 401.639 99.5392 400.198 94.7039L400.478 94.9208C397.984 94.7136 395.606 93.7774 393.64 92.2288C391.861 90.8587 390.403 89.1172 389.366 87.1255C388.431 85.3593 387.965 83.3824 388.014 81.3844C388.073 79.3424 388.583 77.3387 389.507 75.5168C390.431 73.6949 391.747 72.1 393.359 70.8461C394.023 70.3072 394.768 69.8766 395.567 69.5703C394.846 69.9979 394.147 70.4621 393.474 70.961C391.703 72.4599 390.345 74.3883 389.532 76.5618C388.834 78.2008 388.507 79.9739 388.576 81.754C388.644 83.5341 389.106 85.277 389.927 86.8576C390.947 88.7736 392.37 90.4452 394.099 91.7567C395.975 93.2287 398.242 94.1161 400.619 94.3084H400.836L400.899 94.4997C402.303 99.2458 404.229 104.209 406.003 109.516L405.582 109.312L411.961 107.181L414.87 106.199L414.665 106.633C412.765 101.364 410.927 96.2986 409.243 91.6419V91.4505L409.396 91.2974C411.251 89.455 412.634 87.1924 413.428 84.7015C414.105 82.4158 414.105 79.983 413.428 77.6973C412.037 73.4105 409.167 70.1572 406.054 69.009C404.676 68.4776 403.205 68.2303 401.729 68.2818C400.627 68.307 399.531 68.4568 398.463 68.7283C396.562 69.2003 395.669 69.6341 395.656 69.5703Z" fill="#263238"/>
<path d="M356.22 437.949L228.779 437.362C221.42 437.321 214.377 434.361 209.198 429.132C204.019 423.903 201.127 416.832 201.158 409.472L202.51 89.9958C202.525 86.3496 203.259 82.7421 204.669 79.3795C206.079 76.017 208.138 72.9653 210.728 70.3989C213.318 67.8324 216.389 65.8017 219.764 64.4226C223.139 63.0435 226.753 62.3432 230.4 62.3617L357.828 62.9486C365.188 62.9857 372.232 65.9423 377.413 71.1691C382.594 76.3959 385.489 83.4654 385.462 90.8251L384.11 410.289C384.095 413.936 383.361 417.545 381.952 420.909C380.542 424.273 378.483 427.327 375.894 429.895C373.304 432.463 370.234 434.497 366.858 435.878C363.482 437.26 359.868 437.964 356.22 437.949Z" fill="#455A64"/>
<path d="M357.637 73.9331H332.937C332.131 73.9481 331.336 74.1216 330.597 74.4439C329.858 74.7662 329.19 75.2309 328.631 75.8114C328.072 76.3919 327.632 77.077 327.338 77.8273C327.043 78.5777 326.9 79.3787 326.915 80.1846V84.6627C326.93 85.468 326.786 86.2684 326.492 87.0181C326.197 87.7677 325.758 88.4519 325.198 89.0314C324.639 89.6109 323.971 90.0744 323.232 90.3953C322.493 90.7162 321.698 90.8882 320.893 90.9015L272.744 90.6846C271.115 90.6412 269.57 89.953 268.448 88.7713C267.326 87.5896 266.719 86.011 266.76 84.3821V79.904C266.801 78.2772 266.196 76.7004 265.077 75.5191C263.958 74.3377 262.416 73.6482 260.789 73.6014H252.101L230.476 73.4994C225.333 73.4687 220.386 75.4775 216.721 79.0858C213.055 82.6941 210.968 87.608 210.918 92.7514L209.642 404.586C209.63 407.138 210.121 409.667 211.087 412.029C212.053 414.391 213.474 416.539 215.27 418.352C217.066 420.164 219.201 421.605 221.554 422.593C223.907 423.58 226.432 424.094 228.983 424.106L356.157 424.693C358.71 424.705 361.241 424.213 363.604 423.247C365.968 422.281 368.118 420.858 369.931 419.061C371.745 417.264 373.187 415.127 374.175 412.773C375.163 410.418 375.678 407.892 375.689 405.339L376.965 93.5041C376.996 88.3462 374.977 83.3872 371.352 79.7173C367.728 76.0474 362.794 73.9669 357.637 73.9331Z" fill="white"/>
<path d="M340.528 383.089L245.965 382.68C244.982 382.68 244.191 381.609 244.204 380.307L244.306 355.569C244.306 354.293 245.11 353.196 246.092 353.196L340.656 353.63C341.2 353.724 341.687 354.025 342.015 354.469C342.343 354.914 342.487 355.468 342.416 356.016L342.327 380.728C342.327 382.042 341.51 383.101 340.528 383.089Z" fill="#FF1611"/>
<path d="M275.584 364.111C275.55 363.819 275.409 363.591 275.163 363.43C274.916 363.268 274.614 363.187 274.256 363.187C273.994 363.187 273.765 363.229 273.569 363.314C273.374 363.399 273.222 363.515 273.112 363.664C273.005 363.812 272.951 363.98 272.951 364.169C272.951 364.327 272.988 364.462 273.063 364.576C273.14 364.688 273.239 364.781 273.358 364.856C273.477 364.929 273.602 364.99 273.733 365.038C273.864 365.084 273.984 365.122 274.094 365.151L274.695 365.312C274.849 365.353 275.02 365.409 275.209 365.48C275.399 365.551 275.581 365.648 275.755 365.771C275.93 365.893 276.074 366.049 276.188 366.239C276.301 366.43 276.358 366.664 276.358 366.941C276.358 367.26 276.274 367.549 276.107 367.807C275.941 368.065 275.699 368.27 275.379 368.422C275.062 368.574 274.676 368.65 274.221 368.65C273.798 368.65 273.431 368.582 273.121 368.445C272.813 368.309 272.571 368.118 272.393 367.874C272.218 367.629 272.119 367.345 272.096 367.022H272.835C272.854 367.245 272.93 367.43 273.06 367.576C273.193 367.721 273.361 367.828 273.563 367.9C273.767 367.969 273.986 368.004 274.221 368.004C274.495 368.004 274.74 367.959 274.958 367.871C275.175 367.78 275.347 367.655 275.474 367.495C275.602 367.334 275.665 367.145 275.665 366.929C275.665 366.733 275.61 366.573 275.5 366.45C275.391 366.327 275.246 366.227 275.067 366.15C274.888 366.073 274.695 366.005 274.487 365.948L273.759 365.74C273.297 365.607 272.931 365.417 272.662 365.171C272.392 364.924 272.258 364.602 272.258 364.204C272.258 363.872 272.347 363.584 272.526 363.337C272.707 363.089 272.95 362.896 273.254 362.76C273.56 362.621 273.902 362.552 274.279 362.552C274.66 362.552 274.999 362.62 275.295 362.757C275.592 362.892 275.827 363.076 276 363.311C276.175 363.546 276.268 363.813 276.277 364.111H275.584ZM278.252 362.633V368.546H277.535V362.633H278.252ZM284.377 362.633V368.546H283.684L280.461 363.903H280.403V368.546H279.687V362.633H280.38L283.614 367.287H283.672V362.633H284.377ZM289.852 364.481C289.789 364.286 289.705 364.112 289.601 363.958C289.499 363.802 289.377 363.669 289.234 363.56C289.094 363.45 288.934 363.366 288.755 363.308C288.576 363.251 288.38 363.222 288.166 363.222C287.816 363.222 287.497 363.312 287.21 363.493C286.923 363.674 286.695 363.941 286.526 364.293C286.356 364.645 286.272 365.077 286.272 365.59C286.272 366.102 286.357 366.534 286.529 366.886C286.7 367.238 286.932 367.505 287.225 367.686C287.517 367.867 287.846 367.957 288.212 367.957C288.551 367.957 288.849 367.885 289.107 367.741C289.367 367.594 289.569 367.388 289.714 367.123C289.86 366.855 289.933 366.541 289.933 366.179L290.152 366.225H288.374V365.59H290.626V366.225C290.626 366.712 290.522 367.135 290.314 367.495C290.108 367.855 289.823 368.134 289.459 368.333C289.098 368.529 288.682 368.627 288.212 368.627C287.688 368.627 287.228 368.504 286.832 368.258C286.437 368.011 286.129 367.661 285.908 367.207C285.688 366.752 285.579 366.213 285.579 365.59C285.579 365.122 285.641 364.701 285.766 364.328C285.893 363.952 286.072 363.633 286.303 363.369C286.534 363.105 286.808 362.903 287.123 362.763C287.439 362.622 287.787 362.552 288.166 362.552C288.478 362.552 288.768 362.599 289.038 362.693C289.309 362.786 289.551 362.918 289.763 363.089C289.976 363.258 290.154 363.461 290.297 363.698C290.439 363.933 290.537 364.194 290.591 364.481H289.852ZM298.02 362.633H298.736V366.548C298.736 366.952 298.641 367.313 298.451 367.631C298.262 367.947 297.995 368.196 297.651 368.379C297.306 368.56 296.902 368.65 296.438 368.65C295.974 368.65 295.57 368.56 295.225 368.379C294.881 368.196 294.613 367.947 294.422 367.631C294.234 367.313 294.139 366.952 294.139 366.548V362.633H294.856V366.49C294.856 366.779 294.919 367.036 295.046 367.261C295.173 367.485 295.354 367.661 295.589 367.79C295.826 367.917 296.109 367.98 296.438 367.98C296.767 367.98 297.05 367.917 297.287 367.79C297.524 367.661 297.705 367.485 297.83 367.261C297.957 367.036 298.02 366.779 298.02 366.49V362.633ZM300.166 368.546V362.633H302.165C302.629 362.633 303.008 362.716 303.302 362.884C303.599 363.049 303.818 363.274 303.961 363.557C304.103 363.84 304.174 364.155 304.174 364.504C304.174 364.852 304.103 365.169 303.961 365.454C303.82 365.739 303.603 365.966 303.308 366.135C303.014 366.303 302.636 366.387 302.176 366.387H300.744V365.751H302.153C302.471 365.751 302.726 365.696 302.918 365.587C303.111 365.477 303.25 365.329 303.337 365.142C303.426 364.953 303.47 364.741 303.47 364.504C303.47 364.267 303.426 364.055 303.337 363.869C303.25 363.682 303.11 363.536 302.915 363.43C302.721 363.322 302.463 363.268 302.142 363.268H300.883V368.546H300.166Z" fill="#E8E8E3"/>
<path d="M264.826 165.601L232.013 165.452L231.985 171.474L264.799 171.623L264.826 165.601Z" fill="#FF1611"/>
<path opacity="0.1" d="M264.826 165.601L232.013 165.452L231.985 171.474L264.799 171.623L264.826 165.601Z" fill="black"/>
<path d="M361.017 202.574C361.275 202.548 361.528 202.488 361.77 202.395C362.123 202.257 362.43 202.022 362.656 201.718C362.882 201.413 363.017 201.051 363.046 200.673C363.046 198.644 363.046 195.684 363.046 191.882C363.046 189.981 363.046 187.851 363.046 185.503C363.046 184.929 363.046 184.33 363.046 183.73C363.129 183.148 363.003 182.556 362.689 182.059C362.513 181.82 362.285 181.626 362.021 181.491C361.758 181.356 361.467 181.284 361.171 181.28H359.18H340.745L234.036 180.885C233.763 180.88 233.492 180.942 233.248 181.064C233.004 181.186 232.792 181.365 232.632 181.587C232.324 182.086 232.206 182.679 232.301 183.258C232.301 184.534 232.301 185.81 232.301 187.085C232.301 189.637 232.301 192.189 232.301 194.74C232.301 196.016 232.301 197.292 232.301 198.568C232.248 199.162 232.248 199.76 232.301 200.354C232.368 200.609 232.492 200.845 232.665 201.044C232.837 201.243 233.053 201.4 233.296 201.502C233.547 201.602 233.816 201.65 234.087 201.642H240.581L268.916 201.796L316.887 202.089L349.229 202.344L358.019 202.446H360.303C360.826 202.446 361.081 202.446 361.081 202.446H360.303H358.019H349.229H316.887L268.916 202.293L240.581 202.178H234.087C233.729 202.193 233.373 202.132 233.041 202C232.705 201.856 232.406 201.638 232.167 201.362C231.928 201.085 231.756 200.758 231.663 200.405C231.589 200.07 231.563 199.726 231.586 199.384V198.44C231.586 197.164 231.586 195.889 231.586 194.613C231.586 192.061 231.586 189.509 231.586 186.958C231.586 185.682 231.586 184.406 231.586 183.13C231.562 182.791 231.562 182.449 231.586 182.11C231.634 181.734 231.779 181.378 232.007 181.076C232.227 180.768 232.519 180.518 232.856 180.347C233.194 180.176 233.568 180.089 233.946 180.094L340.656 180.681L359.091 180.808H361.081C361.432 180.809 361.777 180.893 362.088 181.056C362.399 181.218 362.666 181.452 362.867 181.74C363.227 182.294 363.372 182.961 363.276 183.615C363.276 184.215 363.276 184.814 363.276 185.389C363.276 187.711 363.276 189.841 363.276 191.768C363.276 195.595 363.186 198.529 363.161 200.571C363.13 200.963 362.987 201.339 362.75 201.653C362.512 201.967 362.19 202.207 361.821 202.344C361.58 202.494 361.302 202.573 361.017 202.574Z" fill="#E0E0E0"/>
<path d="M301.883 187.29H241.869V192.916H301.883V187.29Z" fill="#FF1611"/>
<path opacity="0.2" d="M301.883 187.29H241.869V192.916H301.883V187.29Z" fill="white"/>
<path d="M264.602 220.536L231.789 220.387L231.761 226.409L264.575 226.557L264.602 220.536Z" fill="#FF1611"/>
<path opacity="0.1" d="M264.602 220.536L231.789 220.387L231.761 226.409L264.575 226.557L264.602 220.536Z" fill="black"/>
<path d="M360.188 257.51C360.446 257.479 360.701 257.432 360.954 257.37C361.31 257.257 361.638 257.068 361.915 256.817C362.192 256.566 362.413 256.259 362.561 255.916C362.762 255.401 362.841 254.846 362.791 254.295C362.791 253.683 362.791 253.02 362.791 252.28C362.791 250.8 362.791 249.116 362.791 247.176V239.075C362.852 238.488 362.722 237.898 362.421 237.391C362.106 236.871 361.611 236.485 361.03 236.306C360.395 236.193 359.748 236.159 359.104 236.204H340.745L234.406 235.809C233.834 235.81 233.282 236.019 232.852 236.397C232.423 236.775 232.145 237.296 232.071 237.863C232.071 239.075 232.071 240.414 232.071 241.69C232.071 244.242 232.071 246.794 232.071 249.345C232.071 250.621 232.071 251.897 232.071 253.173C232.023 253.769 232.049 254.369 232.147 254.959C232.307 255.476 232.635 255.925 233.079 256.235C233.55 256.534 234.104 256.677 234.661 256.643H236.434H240.121L268.355 256.783L316.16 257.077L348.387 257.332L357.152 257.434H359.435H360.201H359.435H357.152H348.387H316.16L268.329 257.383L240.096 257.281H234.546C233.856 257.322 233.171 257.138 232.594 256.758C232.013 256.356 231.59 255.765 231.395 255.086C231.28 254.438 231.246 253.778 231.293 253.122C231.293 251.846 231.293 250.57 231.293 249.294C231.293 246.743 231.293 244.191 231.293 241.639C231.293 240.363 231.293 239.088 231.293 237.812C231.386 237.082 231.741 236.412 232.293 235.926C232.845 235.439 233.555 235.171 234.291 235.171L340.63 235.758L358.989 235.898C359.672 235.856 360.359 235.903 361.03 236.038C361.693 236.255 362.252 236.71 362.599 237.314C362.929 237.876 363.072 238.528 363.008 239.177C363.008 239.777 363.008 240.363 363.008 240.95C363.008 243.26 363.008 245.377 363.008 247.329C363.008 249.281 363.008 250.927 363.008 252.433C363.008 253.16 363.008 253.836 363.008 254.461C363.054 255.032 362.962 255.605 362.74 256.133C362.574 256.485 362.335 256.797 362.037 257.048C361.74 257.299 361.392 257.483 361.017 257.587C360.739 257.61 360.458 257.584 360.188 257.51Z" fill="#E0E0E0"/>
<path d="M264.355 277.856L231.542 277.708L231.514 283.729L264.328 283.878L264.355 277.856Z" fill="#FF1611"/>
<path opacity="0.1" d="M264.355 277.856L231.542 277.708L231.514 283.729L264.328 283.878L264.355 277.856Z" fill="black"/>
<path d="M359.933 314.807C360.191 314.777 360.447 314.73 360.699 314.667C361.053 314.554 361.38 314.367 361.657 314.119C361.934 313.87 362.156 313.566 362.306 313.225C362.506 312.71 362.585 312.155 362.536 311.605C362.536 310.98 362.536 310.329 362.536 309.576C362.536 308.109 362.536 306.412 362.536 304.473V296.372C362.597 295.785 362.467 295.195 362.166 294.688C361.844 294.177 361.351 293.797 360.775 293.616C360.14 293.498 359.493 293.459 358.849 293.501H340.49L234.151 293.106C233.579 293.107 233.027 293.316 232.597 293.694C232.168 294.072 231.89 294.592 231.816 295.16C231.816 296.435 231.816 297.711 231.816 298.987C231.816 301.539 231.816 304.09 231.816 306.642C231.816 307.918 231.816 309.194 231.816 310.469C231.768 311.061 231.794 311.657 231.892 312.243C232.045 312.763 232.375 313.214 232.824 313.519C233.292 313.824 233.848 313.968 234.406 313.927H239.956L268.189 314.08L315.994 314.373L348.221 314.629L356.986 314.731H359.27C359.78 314.731 360.035 314.731 360.035 314.731C360.035 314.731 359.78 314.731 359.27 314.731H356.986H348.221H315.994L268.189 314.59L239.956 314.475H234.406C233.715 314.522 233.029 314.338 232.454 313.952C231.873 313.55 231.45 312.96 231.255 312.281C231.14 311.633 231.106 310.973 231.152 310.316C231.152 309.04 231.152 307.765 231.152 306.489C231.152 303.937 231.152 301.386 231.152 298.834C231.152 297.558 231.152 296.282 231.152 294.943C231.243 294.214 231.596 293.544 232.146 293.058C232.695 292.571 233.404 292.302 234.138 292.302L340.477 292.889L358.836 293.029C359.52 292.987 360.206 293.034 360.877 293.169C361.54 293.386 362.099 293.84 362.447 294.445C362.777 295.007 362.92 295.659 362.855 296.308C362.855 296.907 362.855 297.507 362.855 298.081C362.855 300.39 362.855 302.508 362.855 304.46C362.855 306.412 362.855 308.058 362.855 309.564C362.855 310.291 362.855 310.967 362.855 311.592C362.904 312.163 362.812 312.737 362.587 313.263C362.421 313.615 362.182 313.928 361.884 314.179C361.587 314.43 361.239 314.614 360.865 314.718C360.565 314.82 360.246 314.851 359.933 314.807Z" fill="#E0E0E0"/>
<path d="M300.602 243.817L240.589 243.544L240.563 249.171L300.577 249.443L300.602 243.817Z" fill="#FF1611"/>
<path opacity="0.2" d="M300.602 243.817L240.589 243.544L240.563 249.171L300.577 249.443L300.602 243.817Z" fill="white"/>
<path d="M246.016 304.397C245.978 304.91 245.791 305.401 245.477 305.808C245.162 306.216 244.736 306.522 244.249 306.69C243.762 306.857 243.237 306.878 242.739 306.749C242.241 306.621 241.791 306.349 241.446 305.968C241.101 305.586 240.875 305.112 240.797 304.603C240.719 304.095 240.792 303.574 241.007 303.107C241.221 302.639 241.569 302.245 242.006 301.973C242.443 301.701 242.95 301.563 243.464 301.577C244.175 301.617 244.841 301.935 245.319 302.463C245.797 302.991 246.047 303.685 246.016 304.397Z" fill="#FF1611"/>
<path d="M254.143 304.435C254.168 304.794 254.118 305.155 253.998 305.495C253.878 305.835 253.689 306.147 253.443 306.41C253.197 306.674 252.899 306.884 252.569 307.028C252.238 307.172 251.881 307.246 251.521 307.246C251.16 307.246 250.803 307.172 250.473 307.028C250.142 306.884 249.845 306.674 249.599 306.41C249.353 306.147 249.164 305.835 249.043 305.495C248.923 305.155 248.874 304.794 248.899 304.435C248.874 304.075 248.923 303.714 249.043 303.374C249.164 303.034 249.353 302.723 249.599 302.459C249.845 302.196 250.142 301.985 250.473 301.841C250.803 301.698 251.16 301.624 251.521 301.624C251.881 301.624 252.238 301.698 252.569 301.841C252.899 301.985 253.197 302.196 253.443 302.459C253.689 302.723 253.878 303.034 253.998 303.374C254.118 303.714 254.168 304.075 254.143 304.435Z" fill="#FF1611"/>
<path d="M262.282 304.473C262.245 304.986 262.057 305.477 261.743 305.884C261.429 306.292 261.002 306.599 260.516 306.766C260.029 306.933 259.504 306.954 259.006 306.826C258.507 306.697 258.058 306.426 257.712 306.044C257.367 305.663 257.142 305.188 257.063 304.679C256.985 304.171 257.058 303.65 257.273 303.183C257.488 302.715 257.835 302.321 258.272 302.049C258.709 301.777 259.216 301.64 259.731 301.653C260.44 301.696 261.105 302.015 261.582 302.542C262.059 303.069 262.31 303.763 262.282 304.473Z" fill="#FF1611"/>
<path d="M270.409 304.511C270.372 305.025 270.184 305.515 269.87 305.923C269.556 306.331 269.129 306.637 268.643 306.804C268.156 306.972 267.631 306.993 267.133 306.864C266.634 306.736 266.185 306.464 265.839 306.083C265.494 305.701 265.268 305.227 265.19 304.718C265.112 304.209 265.185 303.689 265.4 303.221C265.615 302.754 265.962 302.36 266.399 302.088C266.836 301.816 267.343 301.678 267.858 301.692C268.567 301.735 269.232 302.054 269.709 302.581C270.186 303.108 270.437 303.801 270.409 304.511Z" fill="#FF1611"/>
<path d="M278.536 304.537C278.501 305.051 278.315 305.543 278.003 305.952C277.69 306.362 277.264 306.67 276.777 306.84C276.291 307.009 275.765 307.031 275.266 306.904C274.767 306.777 274.316 306.506 273.969 306.125C273.623 305.744 273.396 305.269 273.317 304.76C273.238 304.251 273.31 303.73 273.525 303.262C273.74 302.794 274.087 302.399 274.525 302.126C274.962 301.854 275.47 301.716 275.984 301.73C276.692 301.773 277.354 302.09 277.831 302.615C278.308 303.139 278.561 303.829 278.536 304.537Z" fill="#FF1611"/>
<path d="M286.676 304.575C286.641 305.086 286.457 305.576 286.148 305.984C285.838 306.393 285.416 306.702 284.933 306.873C284.45 307.044 283.927 307.071 283.429 306.949C282.932 306.828 282.48 306.563 282.131 306.188C281.782 305.813 281.549 305.344 281.463 304.839C281.377 304.334 281.44 303.814 281.645 303.345C281.85 302.875 282.188 302.476 282.617 302.195C283.046 301.915 283.548 301.767 284.06 301.768C284.779 301.795 285.458 302.105 285.948 302.631C286.438 303.157 286.7 303.856 286.676 304.575Z" fill="#FF1611"/>
<path d="M294.803 304.613C294.828 304.973 294.779 305.334 294.658 305.674C294.538 306.014 294.349 306.325 294.103 306.589C293.857 306.853 293.559 307.063 293.229 307.207C292.898 307.35 292.541 307.425 292.181 307.425C291.82 307.425 291.464 307.35 291.133 307.207C290.802 307.063 290.505 306.853 290.259 306.589C290.013 306.325 289.824 306.014 289.704 305.674C289.583 305.334 289.534 304.973 289.559 304.613C289.534 304.254 289.583 303.893 289.704 303.553C289.824 303.213 290.013 302.902 290.259 302.638C290.505 302.374 290.802 302.164 291.133 302.02C291.464 301.876 291.82 301.802 292.181 301.802C292.541 301.802 292.898 301.876 293.229 302.02C293.559 302.164 293.857 302.374 294.103 302.638C294.349 302.902 294.538 303.213 294.658 303.553C294.779 303.893 294.828 304.254 294.803 304.613Z" fill="#FF1611"/>
<path d="M302.93 304.652C302.895 305.163 302.711 305.653 302.402 306.061C302.092 306.469 301.67 306.778 301.187 306.95C300.704 307.121 300.181 307.148 299.683 307.026C299.186 306.904 298.734 306.64 298.385 306.265C298.035 305.89 297.803 305.421 297.717 304.916C297.631 304.41 297.694 303.891 297.899 303.421C298.104 302.952 298.442 302.552 298.871 302.272C299.3 301.992 299.802 301.843 300.314 301.845C301.033 301.871 301.712 302.182 302.202 302.708C302.692 303.234 302.954 303.933 302.93 304.652Z" fill="#FF1611"/>
<path d="M311.057 304.69C311.021 305.204 310.836 305.696 310.523 306.106C310.211 306.515 309.785 306.824 309.298 306.993C308.811 307.162 308.286 307.185 307.787 307.058C307.287 306.931 306.836 306.66 306.49 306.278C306.143 305.897 305.916 305.423 305.837 304.914C305.758 304.404 305.831 303.883 306.046 303.415C306.26 302.947 306.608 302.552 307.045 302.28C307.482 302.007 307.99 301.869 308.505 301.883C309.212 301.926 309.875 302.243 310.352 302.768C310.828 303.292 311.081 303.982 311.057 304.69Z" fill="#FF1611"/>
<g opacity="0.2">
<path d="M246.016 304.397C245.978 304.91 245.791 305.401 245.477 305.808C245.162 306.216 244.736 306.522 244.249 306.69C243.762 306.857 243.237 306.878 242.739 306.749C242.241 306.621 241.791 306.349 241.446 305.968C241.101 305.586 240.875 305.112 240.797 304.603C240.719 304.095 240.792 303.574 241.007 303.107C241.221 302.639 241.569 302.245 242.006 301.973C242.443 301.701 242.95 301.563 243.464 301.577C244.175 301.617 244.841 301.935 245.319 302.463C245.797 302.991 246.047 303.685 246.016 304.397Z" fill="white"/>
<path d="M254.143 304.435C254.168 304.794 254.118 305.155 253.998 305.495C253.878 305.835 253.689 306.147 253.443 306.41C253.197 306.674 252.899 306.884 252.569 307.028C252.238 307.172 251.881 307.246 251.521 307.246C251.16 307.246 250.803 307.172 250.473 307.028C250.142 306.884 249.845 306.674 249.599 306.41C249.353 306.147 249.164 305.835 249.043 305.495C248.923 305.155 248.874 304.794 248.899 304.435C248.874 304.075 248.923 303.714 249.043 303.374C249.164 303.034 249.353 302.723 249.599 302.459C249.845 302.196 250.142 301.985 250.473 301.841C250.803 301.698 251.16 301.624 251.521 301.624C251.881 301.624 252.238 301.698 252.569 301.841C252.899 301.985 253.197 302.196 253.443 302.459C253.689 302.723 253.878 303.034 253.998 303.374C254.118 303.714 254.168 304.075 254.143 304.435Z" fill="white"/>
<path d="M262.282 304.473C262.245 304.987 262.057 305.477 261.743 305.885C261.429 306.293 261.002 306.599 260.516 306.766C260.029 306.934 259.504 306.954 259.006 306.826C258.507 306.698 258.058 306.426 257.712 306.045C257.367 305.663 257.142 305.188 257.063 304.68C256.985 304.171 257.058 303.651 257.273 303.183C257.488 302.716 257.835 302.322 258.272 302.05C258.709 301.778 259.216 301.64 259.731 301.654C260.44 301.697 261.105 302.016 261.582 302.543C262.059 303.07 262.31 303.763 262.282 304.473Z" fill="white"/>
<path d="M270.409 304.511C270.372 305.025 270.184 305.515 269.87 305.923C269.556 306.331 269.129 306.637 268.643 306.804C268.156 306.972 267.631 306.993 267.133 306.864C266.634 306.736 266.185 306.464 265.839 306.083C265.494 305.701 265.268 305.227 265.19 304.718C265.112 304.209 265.185 303.689 265.4 303.221C265.615 302.754 265.962 302.36 266.399 302.088C266.836 301.816 267.343 301.678 267.858 301.692C268.567 301.735 269.232 302.054 269.709 302.581C270.186 303.108 270.437 303.801 270.409 304.511Z" fill="white"/>
<path d="M278.536 304.537C278.501 305.051 278.315 305.543 278.003 305.953C277.69 306.362 277.264 306.671 276.777 306.84C276.291 307.009 275.765 307.032 275.266 306.905C274.767 306.778 274.316 306.507 273.969 306.126C273.623 305.744 273.396 305.27 273.317 304.761C273.238 304.252 273.31 303.731 273.525 303.262C273.74 302.794 274.087 302.399 274.525 302.127C274.962 301.855 275.47 301.717 275.984 301.73C276.692 301.773 277.354 302.091 277.831 302.615C278.308 303.139 278.561 303.829 278.536 304.537Z" fill="white"/>
<path d="M286.676 304.575C286.641 305.087 286.457 305.577 286.148 305.985C285.838 306.393 285.416 306.702 284.933 306.874C284.45 307.045 283.927 307.071 283.429 306.95C282.932 306.828 282.48 306.563 282.131 306.188C281.782 305.814 281.549 305.345 281.463 304.839C281.377 304.334 281.44 303.815 281.645 303.345C281.85 302.876 282.188 302.476 282.617 302.196C283.046 301.916 283.548 301.767 284.06 301.769C284.779 301.795 285.458 302.106 285.948 302.632C286.438 303.158 286.7 303.857 286.676 304.575Z" fill="white"/>
<path d="M294.803 304.613C294.828 304.973 294.779 305.334 294.658 305.674C294.538 306.014 294.349 306.325 294.103 306.589C293.857 306.853 293.559 307.063 293.229 307.207C292.898 307.35 292.541 307.425 292.181 307.425C291.82 307.425 291.464 307.35 291.133 307.207C290.802 307.063 290.505 306.853 290.259 306.589C290.013 306.325 289.824 306.014 289.704 305.674C289.583 305.334 289.534 304.973 289.559 304.613C289.534 304.254 289.583 303.893 289.704 303.553C289.824 303.213 290.013 302.902 290.259 302.638C290.505 302.374 290.802 302.164 291.133 302.02C291.464 301.876 291.82 301.802 292.181 301.802C292.541 301.802 292.898 301.876 293.229 302.02C293.559 302.164 293.857 302.374 294.103 302.638C294.349 302.902 294.538 303.213 294.658 303.553C294.779 303.893 294.828 304.254 294.803 304.613Z" fill="white"/>
<path d="M302.93 304.652C302.895 305.163 302.711 305.653 302.402 306.062C302.092 306.47 301.67 306.779 301.187 306.95C300.704 307.122 300.181 307.148 299.683 307.026C299.186 306.905 298.734 306.64 298.385 306.265C298.035 305.89 297.803 305.421 297.717 304.916C297.631 304.411 297.694 303.892 297.899 303.422C298.104 302.952 298.442 302.553 298.871 302.273C299.3 301.992 299.802 301.844 300.314 301.845C301.033 301.872 301.712 302.182 302.202 302.708C302.692 303.234 302.954 303.933 302.93 304.652Z" fill="white"/>
<path d="M311.057 304.69C311.021 305.204 310.836 305.696 310.523 306.106C310.211 306.515 309.785 306.824 309.298 306.993C308.811 307.162 308.286 307.185 307.787 307.058C307.287 306.931 306.836 306.66 306.49 306.278C306.143 305.897 305.916 305.423 305.837 304.914C305.758 304.404 305.831 303.883 306.046 303.415C306.26 302.947 306.608 302.552 307.045 302.28C307.482 302.007 307.99 301.869 308.505 301.883C309.212 301.926 309.875 302.243 310.352 302.768C310.828 303.292 311.081 303.982 311.057 304.69Z" fill="white"/>
</g>
<path d="M299.511 120.513C300.397 120.123 301.149 119.481 301.673 118.666C302.197 117.852 302.47 116.902 302.458 115.933C302.491 115.304 302.395 114.674 302.177 114.083C301.959 113.491 301.623 112.951 301.189 112.493C300.755 112.036 300.233 111.672 299.653 111.423C299.074 111.174 298.45 111.046 297.82 111.046C297.19 111.046 296.566 111.174 295.987 111.423C295.408 111.672 294.885 112.036 294.451 112.493C294.018 112.951 293.681 113.491 293.463 114.083C293.245 114.674 293.15 115.304 293.183 115.933C293.163 116.911 293.434 117.873 293.961 118.697C294.487 119.522 295.247 120.171 296.142 120.564C288.998 121.636 289.317 129.393 289.317 129.393L306.209 129.47C306.209 129.47 306.604 121.572 299.511 120.513Z" fill="#FF1611"/>
<path opacity="0.1" d="M299.511 120.513C300.397 120.123 301.149 119.481 301.673 118.666C302.197 117.852 302.47 116.902 302.458 115.933C302.491 115.304 302.395 114.674 302.177 114.083C301.959 113.491 301.623 112.951 301.189 112.493C300.755 112.036 300.233 111.672 299.653 111.423C299.074 111.174 298.45 111.046 297.82 111.046C297.19 111.046 296.566 111.174 295.987 111.423C295.408 111.672 294.885 112.036 294.451 112.493C294.018 112.951 293.681 113.491 293.463 114.083C293.245 114.674 293.15 115.304 293.183 115.933C293.163 116.911 293.434 117.873 293.961 118.697C294.487 119.522 295.247 120.171 296.142 120.564C288.998 121.636 289.317 129.393 289.317 129.393L306.209 129.47C306.209 129.47 306.604 121.572 299.511 120.513Z" fill="black"/>
<path d="M326.959 134.472L266.754 134.199L266.721 141.395L326.926 141.668L326.959 134.472Z" fill="#FF1611"/>
<path opacity="0.2" d="M326.959 134.472L266.754 134.199L266.721 141.395L326.926 141.668L326.959 134.472Z" fill="white"/>
<path d="M105.625 171.763H105.025L103.29 171.89C102.351 171.947 101.417 172.07 100.496 172.26C99.8992 172.344 99.3072 172.459 98.7225 172.605L96.745 173.153C93.3792 174.186 90.2035 175.759 87.3422 177.81C83.5619 180.554 80.4052 184.067 78.0798 188.119C76.7131 190.454 75.6254 192.942 74.8393 195.531C74.0132 198.345 73.5375 201.251 73.4231 204.181C73.3471 205.721 73.3726 207.264 73.4997 208.8C73.4997 209.578 73.7165 210.356 73.8186 211.147C73.9045 211.945 74.0538 212.734 74.2651 213.507C75.4124 218.627 77.7402 223.408 81.0628 227.468C84.3855 231.528 88.611 234.756 93.4024 236.893C96.8702 238.389 100.587 239.225 104.362 239.355C108.26 239.57 112.163 239.011 115.844 237.71L116.967 237.289H117.12L117.247 237.365L133.335 245.53L132.863 245.939C131.141 240.606 129.482 235.439 127.875 230.476V230.284L128.015 230.144C131.918 226.213 134.815 221.399 136.461 216.11C137.952 211.275 138.387 206.176 137.737 201.158C137.159 196.698 135.725 192.392 133.514 188.476C131.608 185.112 129.15 182.093 126.242 179.545C123.843 177.529 121.187 175.838 118.345 174.519C116.194 173.591 113.954 172.886 111.659 172.413L109.108 171.992L107.258 171.852L106.135 171.776H105.752C105.879 171.761 106.008 171.761 106.135 171.776H107.27L109.12 171.852L111.672 172.222C113.995 172.66 116.266 173.339 118.447 174.251C121.338 175.555 124.041 177.241 126.484 179.265C129.446 181.801 131.956 184.821 133.909 188.195C136.183 192.153 137.661 196.518 138.26 201.043C138.964 206.138 138.559 211.326 137.073 216.25C135.417 221.649 132.475 226.566 128.5 230.578L128.577 230.246C130.184 235.209 131.855 240.376 133.591 245.696L133.833 246.474L133.106 246.104L117.018 237.952H117.298L116.15 238.373C112.398 239.693 108.423 240.266 104.451 240.057C100.595 239.91 96.8004 239.045 93.262 237.506C86.5126 234.615 80.8971 229.591 77.2761 223.204C75.6097 220.254 74.3928 217.072 73.6655 213.763C73.4663 212.969 73.3172 212.164 73.219 211.351C73.1169 210.548 72.9511 209.757 72.9128 208.966C72.5675 204.426 73.0473 199.861 74.3289 195.493C75.1347 192.868 76.2527 190.349 77.6588 187.991C80.0396 183.903 83.2621 180.367 87.1126 177.619C90.021 175.562 93.25 174.002 96.6684 173L98.6715 172.49C99.261 172.353 99.8572 172.247 100.458 172.171C101.388 171.999 102.331 171.896 103.277 171.865L105.025 171.801C105.224 171.774 105.424 171.762 105.625 171.763Z" fill="#FF1611"/>
<path d="M112.897 201.515H110.537L105.433 194.345V189.637C105.433 189.637 101.785 189.407 102.218 195.569C102.652 201.732 102.218 200.162 102.218 200.162C102.218 200.162 94.4742 200.162 93.8363 200.864C93.1983 201.566 93.1601 209.042 93.0708 213.214C93.0219 214.22 93.3104 215.213 93.8906 216.036C94.4708 216.859 95.3094 217.464 96.2731 217.756C96.5432 217.831 96.822 217.869 97.1023 217.871C99.0416 217.871 108.904 216.301 108.904 216.301H112.973L112.897 201.515Z" fill="#FF1611"/>
<path d="M119.646 200.252L118.191 216.378H114.16V200.584L119.646 200.252Z" fill="#FF1611"/>
<path d="M167.732 528.557V517.649L148.174 517.509L148.008 534.005L149.22 534.094C154.617 534.439 176.675 534.949 180.299 533.826C184.33 532.576 167.732 528.557 167.732 528.557Z" fill="#FF1611"/>
<path d="M180.758 532.805C180.758 532.984 173.434 533.137 164.414 533.137C155.394 533.137 148.071 532.984 148.071 532.805C148.071 532.627 155.394 532.474 164.414 532.474C173.434 532.474 180.758 532.627 180.758 532.805Z" fill="#263238"/>
<path d="M168.076 530.79C167.91 530.701 168.076 530.127 168.472 529.514C168.867 528.902 169.403 528.647 169.531 528.774C169.658 528.902 169.39 529.387 169.007 529.91C168.625 530.433 168.242 530.879 168.076 530.79Z" fill="#263238"/>
<path d="M169.326 531.504C169.148 531.504 169.237 530.79 169.62 530.114C170.003 529.437 170.513 529.029 170.653 529.131C170.794 529.233 170.564 529.807 170.207 530.407C169.85 531.007 169.492 531.568 169.326 531.504Z" fill="#263238"/>
<path d="M153.966 532.755C153.889 532.755 153.596 532.525 153.175 532.04C152.661 531.417 152.088 530.844 151.465 530.331C150.852 529.841 150.122 529.52 149.347 529.399C148.747 529.323 148.365 529.399 148.326 529.323C148.288 529.246 148.658 528.978 149.36 528.927C150.286 528.908 151.189 529.215 151.911 529.795C152.588 530.346 153.159 531.016 153.596 531.772C153.889 532.334 154.042 532.704 153.966 532.755Z" fill="#263238"/>
<path d="M168.14 528.736C168.229 528.889 167.897 529.272 167.336 529.476C166.775 529.68 166.277 529.603 166.252 529.476C166.226 529.348 166.622 529.08 167.106 528.902C167.591 528.723 168.038 528.583 168.14 528.736Z" fill="#263238"/>
<path d="M167.834 527.677C167.834 527.868 167.323 528.021 166.66 528.034C165.997 528.047 165.474 527.894 165.486 527.715C165.499 527.536 166.022 527.37 166.66 527.358C167.298 527.345 167.808 527.498 167.834 527.677Z" fill="#263238"/>
<path d="M215.894 528.557V517.649L196.336 517.509L196.17 533.839L197.382 533.929C202.778 534.273 224.85 534.949 228.461 533.826C232.492 532.576 215.894 528.557 215.894 528.557Z" fill="#FF1611"/>
<path d="M228.92 532.831C228.92 533.01 221.609 533.163 212.577 533.163C203.544 533.163 196.246 533.01 196.246 532.831C196.246 532.653 203.557 532.5 212.577 532.5C221.597 532.5 228.92 532.653 228.92 532.831Z" fill="#263238"/>
<path d="M216.238 530.79C216.085 530.701 216.238 530.127 216.634 529.514C217.029 528.902 217.565 528.647 217.693 528.774C217.82 528.902 217.552 529.387 217.169 529.91C216.787 530.433 216.404 530.879 216.238 530.79Z" fill="#263238"/>
<path d="M217.489 531.504C217.323 531.504 217.399 530.79 217.795 530.114C218.19 529.437 218.688 529.029 218.828 529.131C218.968 529.233 218.726 529.807 218.369 530.407C218.012 531.007 217.667 531.568 217.489 531.504Z" fill="#263238"/>
<path d="M202.128 532.755C202.051 532.755 201.77 532.525 201.337 532.04C200.823 531.417 200.25 530.844 199.627 530.331C199.014 529.841 198.284 529.52 197.509 529.399C196.922 529.323 196.527 529.399 196.489 529.323C196.45 529.246 196.82 528.978 197.522 528.927C198.448 528.908 199.351 529.215 200.074 529.795C200.754 530.343 201.325 531.013 201.758 531.772C202.051 532.334 202.204 532.704 202.128 532.755Z" fill="#263238"/>
<path d="M216.302 528.736C216.391 528.889 216.06 529.272 215.498 529.476C214.937 529.68 214.439 529.603 214.414 529.476C214.388 529.348 214.784 529.08 215.269 528.902C215.753 528.723 216.2 528.583 216.302 528.736Z" fill="#263238"/>
<path d="M216.021 527.677C216.021 527.868 215.511 528.021 214.848 528.034C214.184 528.047 213.674 527.894 213.687 527.715C213.699 527.536 214.21 527.37 214.848 527.358C215.485 527.345 216.021 527.498 216.021 527.677Z" fill="#263238"/>
<path d="M287.952 204.628C287.441 204.105 286.178 204.36 286.178 204.36C286.305 203.625 286.305 202.874 286.178 202.14C285.949 201.425 284.341 201.566 284.341 201.566C284.267 200.964 284.267 200.356 284.341 199.754C284.354 199.621 284.325 199.487 284.259 199.37C284.193 199.254 284.092 199.161 283.971 199.103C283.211 198.793 282.394 198.646 281.573 198.67C280.59 197.968 284.571 192.393 286.051 190.606C287.531 188.82 287.263 187.43 285.949 187.43C285.043 187.43 280.399 192.788 278.97 194.587C277.541 196.386 273.752 201.387 273.624 197.394C273.497 193.4 271.889 190.39 270.881 189.879C269.873 189.369 268.802 190.568 269.35 191.678C269.832 192.939 270.133 194.262 270.243 195.608C270.382 196.679 270.334 197.767 270.103 198.823C269.68 200.787 269.104 202.715 268.381 204.589H268.279C268.279 204.589 240.44 231.292 238.425 233.193C236.626 234.903 200.444 231.165 193.184 230.399C190.717 230.038 188.226 229.868 185.733 229.889C182.582 230.029 182.021 230.476 178.882 230.514C170.956 230.602 163.049 231.297 155.229 232.594C151.688 233.196 148.38 234.758 145.667 237.112C142.954 239.465 140.939 242.518 139.842 245.939C132.532 268.776 115.972 322.832 113.05 353.196C110.843 357.2 108.849 361.318 107.079 365.533C105.025 371.121 105.523 371.313 106.212 371.44C108.075 371.785 110.192 361.757 110.983 364.181C111.774 366.605 106.965 376.135 108.917 376.416C111.468 376.773 113.497 366.21 113.739 365.368C113.982 364.525 115.245 364.793 115.015 365.584C114.645 366.707 111.06 378.61 113.561 378.993C114.938 379.197 115.092 376.684 115.092 376.684C115.092 376.684 117.643 365.291 118.804 365.521C119.965 365.75 118.728 372.474 118.141 374.719C117.554 376.965 118.37 378.1 119.57 377.552C120.386 377.169 122.338 370.343 122.874 368.123C123.41 365.903 124.75 359.754 126.548 363.313C128.347 366.873 131.078 368.94 132.2 368.991C132.453 368.962 132.692 368.857 132.885 368.692C133.078 368.526 133.217 368.306 133.285 368.06C133.352 367.815 133.344 367.555 133.262 367.313C133.18 367.072 133.028 366.861 132.825 366.707C131.86 365.764 131.031 364.691 130.363 363.518C129.768 362.604 129.336 361.594 129.087 360.532C128.573 358.416 128.274 356.253 128.194 354.077L127.99 352.801C130.848 338.652 139.077 297.124 150.955 270.6L155.828 280.628L157.946 288.053L144.958 320.114L200.354 319.387L192.087 287.568L202.128 254.397C212.985 254.64 240.861 255.048 245.505 252.943C251.349 250.391 281.573 212.219 281.573 212.219C283.543 210.688 285.429 209.052 287.224 207.32C287.224 207.32 289.062 205.776 287.952 204.628Z" fill="#FFBE9D"/>
<path d="M142.521 296.423C144.129 290.937 152.384 263.813 152.384 263.813C152.384 263.813 156.441 285.923 155.369 288.589C154.383 290.872 153.219 293.073 151.886 295.172C142.521 309.423 143.746 316.555 143.746 316.555L200.329 314.833C200.456 306.923 195.774 288.525 194.804 285.591C193.835 282.657 197.063 273.05 197.063 273.05C197.063 273.05 203.442 266.556 203.212 263.213C203.091 260.211 202.72 257.223 202.102 254.283L236.549 255.558L235.465 232.211L185.988 227.261C184.266 232.122 168.688 229.736 168.688 229.736C151.873 230.297 150.827 233.385 143.836 238.82C136.844 244.255 125.272 290.898 125.272 290.898L142.521 296.423Z" fill="#FF1611"/>
<path d="M175.973 290.898C174.993 291.073 173.994 291.125 173.001 291.051C171.151 291.051 168.612 290.924 165.818 290.643C163.024 290.362 160.498 289.967 158.699 289.61C157.707 289.482 156.734 289.233 155.803 288.87C156.8 288.87 157.795 288.964 158.775 289.15C160.587 289.38 163.1 289.699 165.882 289.98C168.663 290.26 171.189 290.452 173.013 290.579C174.008 290.592 174.999 290.699 175.973 290.898Z" fill="#263238"/>
<path d="M179.852 286.088C178.871 286.569 177.834 286.925 176.764 287.147C171.674 288.485 166.423 289.107 161.161 288.997C160.072 289.033 158.984 288.93 157.921 288.691C158.995 288.555 160.078 288.5 161.161 288.525C163.164 288.461 165.92 288.321 168.956 287.964C171.993 287.607 174.698 287.096 176.611 286.688C177.674 286.404 178.758 286.204 179.852 286.088Z" fill="#263238"/>
<path d="M198.887 264.629C198.861 265.602 198.729 266.569 198.492 267.513C198.16 269.286 197.649 271.71 196.999 274.364C196.348 277.018 195.723 279.467 195.162 281.126C194.936 282.075 194.602 282.995 194.167 283.869C194.238 282.899 194.417 281.94 194.702 281.011C195.187 279.021 195.736 276.724 196.348 274.211C196.961 271.697 197.547 269.401 198.032 267.411C198.205 266.453 198.492 265.519 198.887 264.629Z" fill="#263238"/>
<path d="M143.121 293.169C140.17 292.713 137.257 292.035 134.407 291.141C131.496 290.46 128.639 289.564 125.859 288.461C128.809 288.925 131.722 289.603 134.573 290.49C137.485 291.168 140.343 292.064 143.121 293.169Z" fill="#263238"/>
<path d="M202.714 254.002C202.233 254.085 201.741 254.085 201.26 254.002C199.927 253.865 198.619 253.552 197.369 253.071C195.282 252.286 193.382 251.074 191.791 249.512C190.2 247.95 188.954 246.072 188.132 243.999C187.223 241.72 186.835 239.266 186.996 236.817C187.053 234.797 187.657 232.83 188.744 231.126C189.509 229.979 190.651 229.135 191.972 228.741C192.325 228.643 192.69 228.596 193.057 228.6C193.312 228.6 193.439 228.6 193.439 228.6C193.439 228.6 192.903 228.6 192.049 228.945C190.836 229.393 189.808 230.232 189.127 231.331C187.392 234.061 186.907 239.049 188.757 243.706C189.618 245.902 190.966 247.873 192.699 249.473C194.12 250.781 195.755 251.835 197.535 252.586C199.204 253.246 200.941 253.72 202.714 254.002Z" fill="#263238"/>
<path d="M232.454 255.099C232.135 251.187 232.032 247.26 232.148 243.336C232.048 239.416 232.167 235.493 232.505 231.586C232.824 235.494 232.926 239.417 232.811 243.336C232.918 247.261 232.799 251.188 232.454 255.099Z" fill="#263238"/>
<path d="M185.657 228.69C185.797 225.845 186.091 222.63 186.091 222.63C186.091 222.63 193.133 221.851 193.554 214.579C193.975 207.307 193.554 190.53 193.554 190.53L180.796 183.998L166.635 195.136L168.816 231.497L181.804 232.326C182.797 232.353 183.76 231.986 184.482 231.304C185.204 230.623 185.627 229.683 185.657 228.69Z" fill="#FFBE9D"/>
<path d="M186.92 208.825C186.92 208.825 186.92 208.966 186.805 209.131C186.71 209.252 186.587 209.347 186.447 209.409C186.307 209.472 186.154 209.499 186.001 209.489C185.185 209.489 184.394 208.545 184.113 207.447C183.98 206.916 183.98 206.359 184.113 205.827C184.139 205.595 184.223 205.373 184.357 205.181C184.49 204.99 184.67 204.835 184.879 204.73C185.05 204.659 185.243 204.659 185.415 204.73C185.542 204.793 185.645 204.896 185.708 205.023C185.797 205.24 185.708 205.381 185.708 205.368C185.708 205.355 185.708 205.24 185.58 205.113C185.514 205.021 185.416 204.958 185.305 204.934C185.194 204.911 185.079 204.929 184.981 204.985C184.824 205.08 184.694 205.212 184.603 205.371C184.511 205.529 184.461 205.708 184.458 205.891C184.35 206.365 184.35 206.858 184.458 207.333C184.713 208.328 185.402 209.131 186.014 209.208C186.134 209.224 186.256 209.216 186.372 209.183C186.489 209.15 186.597 209.093 186.69 209.017C186.843 208.915 186.895 208.813 186.92 208.825Z" fill="#EB996E"/>
<path d="M197.93 186.601C196.948 183.258 193.389 181.599 190.148 180.681C185.211 179.277 179.878 178.665 175.055 180.438C170.233 182.212 164.44 185.325 164.44 190.645C161.595 190.415 159.962 192.903 158.839 195.991C158.122 197.872 157.692 199.85 157.564 201.859C157.206 208.825 155.254 218.445 150.738 223.548C148.186 226.393 144.652 228.358 143.198 231.905C141.922 234.979 142.586 238.628 141.399 241.741C140.34 244.484 138.005 246.436 136.296 248.822C134.554 251.529 133.529 254.633 133.317 257.845C133.105 261.056 133.713 264.269 135.084 267.181C136.464 270.018 138.408 272.545 140.797 274.607C143.186 276.668 145.969 278.222 148.977 279.174C154.937 280.987 161.292 281.049 167.285 279.352C171.784 278.277 175.98 276.196 179.559 273.267C183.221 270.276 185.736 266.111 186.678 261.478C187.584 256.273 186.129 250.978 185.045 245.798C181.651 229.43 182.621 228.575 186.907 213.38C187.009 213.112 187.061 212.831 187.137 212.563C187.214 212.295 187.252 212.168 187.303 211.964C187.425 211.363 187.489 210.752 187.494 210.139C186.868 210.372 186.189 210.421 185.535 210.281C184.882 210.141 184.283 209.817 183.807 209.348C183.331 208.848 182.998 208.228 182.846 207.554C182.693 206.88 182.725 206.178 182.94 205.521C183.241 204.802 183.689 204.155 184.256 203.621C184.823 203.087 185.496 202.678 186.231 202.421C187.647 201.834 189.166 201.528 190.556 200.877C193.503 199.474 195.545 196.565 196.935 193.515C198.079 191.402 198.431 188.951 197.93 186.601Z" fill="#263238"/>
<path d="M187.43 209.17C187.7 209.568 187.922 209.996 188.094 210.446C188.476 211.249 188.987 212.385 189.548 213.699L189.65 213.941H189.382L188.106 214.056C187.226 214.056 186.486 214.222 185.618 214.209C185.543 214.192 185.473 214.157 185.415 214.105C185.357 214.054 185.313 213.989 185.287 213.916C185.249 213.8 185.249 213.675 185.287 213.559C185.316 213.387 185.355 213.216 185.402 213.048L185.631 212.143C185.747 211.538 185.926 210.948 186.167 210.382C186.143 210.998 186.054 211.61 185.899 212.206L185.721 213.112C185.657 213.418 185.542 213.89 185.721 213.852C186.358 213.852 187.264 213.712 188.106 213.661L189.382 213.546L189.216 213.827C188.668 212.551 188.208 211.352 187.94 210.522C187.705 210.099 187.534 209.643 187.43 209.17Z" fill="#FF1611"/>
<path d="M143.747 316.555L200.329 314.833L224.952 410.952L220.423 521.208H190.505L194.167 413.3L172.287 346.383L175.655 525.482L145.418 525.929L142.241 357.585C142.101 352.903 140.57 342.352 141.144 337.708L143.747 316.555Z" fill="#263238"/>
<path d="M179.814 347.749C178.888 347.807 177.958 347.751 177.045 347.583C175.336 347.379 173.001 347.021 170.437 346.511C167.872 346.001 165.576 345.414 163.917 344.942C163.031 344.747 162.173 344.438 161.365 344.023C161.365 343.832 165.525 344.827 170.628 345.86C175.731 346.894 179.839 347.557 179.814 347.749Z" fill="#455A64"/>
<path d="M220.117 515.161C220.117 515.339 213.342 515.493 204.985 515.493C196.629 515.493 189.842 515.339 189.842 515.161C189.842 514.982 196.616 514.829 204.985 514.829C213.355 514.829 220.117 514.969 220.117 515.161Z" fill="#455A64"/>
<path d="M175.386 520.826C175.386 521.017 168.803 521.158 160.689 521.158C152.575 521.158 146.004 521.017 146.004 520.826C146.004 520.634 152.588 520.494 160.689 520.494C168.79 520.494 175.386 520.647 175.386 520.826Z" fill="#455A64"/>
<path d="M171.483 520.366C171.304 520.366 170.513 481.237 169.709 432.973C168.905 384.709 168.433 345.554 168.599 345.554C168.765 345.554 169.582 384.671 170.373 432.96C171.164 481.25 171.674 520.366 171.483 520.366Z" fill="#455A64"/>
<path d="M216.098 515.161C216.084 514.987 216.084 514.812 216.098 514.638V513.107C216.098 511.729 216.2 509.752 216.276 507.238C216.455 502.135 216.71 494.723 217.029 485.639C217.718 467.369 218.688 442.185 219.747 414.385C219.747 414.117 219.747 413.862 219.747 413.632V413.721C213.049 386.929 206.988 362.612 202.587 345.019L197.484 324.21C196.897 321.773 196.45 319.872 196.131 318.545C195.978 317.92 195.876 317.435 195.787 317.065C195.737 316.899 195.707 316.728 195.698 316.555C195.764 316.716 195.815 316.883 195.851 317.053C195.953 317.41 196.08 317.895 196.259 318.507C196.603 319.783 197.101 321.722 197.739 324.146C199.015 329.071 200.814 336.164 203.059 344.904C207.499 362.485 213.623 386.738 220.41 413.568V413.657C220.41 413.887 220.41 414.155 220.41 414.41C219.275 442.21 218.241 467.382 217.488 485.652C217.093 494.748 216.761 502.11 216.532 507.238C216.404 509.79 216.302 511.729 216.238 513.107C216.238 513.758 216.162 514.268 216.149 514.638C216.151 514.814 216.134 514.989 216.098 515.161Z" fill="#455A64"/>
<path d="M206.338 411.386C204.189 412.093 201.975 412.584 199.729 412.853C196.973 413.325 194.626 413.657 193.567 413.708V413.453C193.911 413.555 194.09 413.619 194.09 413.67C194.09 413.721 193.873 413.67 193.516 413.67H192.75L193.516 413.44C194.511 413.147 196.859 412.662 199.614 412.164C201.825 411.685 204.077 411.424 206.338 411.386Z" fill="#455A64"/>
<path d="M205.815 415.048C203.825 415.139 201.83 415.049 199.857 414.78C197.864 414.739 195.878 414.521 193.924 414.129C197.911 413.804 201.925 414.114 205.815 415.048Z" fill="#455A64"/>
<path opacity="0.2" d="M143.504 318.583C144.174 319.444 145.018 320.153 145.981 320.666C146.944 321.178 148.004 321.481 149.092 321.556C151.371 321.826 153.676 321.783 155.943 321.428C170.551 319.808 186.027 318.315 200.329 314.833C181.817 315.866 162.258 315.521 143.746 316.555L143.555 318.137" fill="black"/>
<g opacity="0.2">
<path d="M162.577 344.674L173.014 385.168L172.286 346.383L162.577 344.674Z" fill="black"/>
</g>
</svg>
